<?xml version="1.0" encoding="UTF-8" standalone="no"?>
<!-- Created with Inkscape (http://www.inkscape.org/) -->

<svg
   version="1.1"
   id="svg2"
   width="1587.4"
   height="1122.52"
   viewBox="0 0 1587.4 1122.52"
   sodipodi:docname="AIAG logo.svg"
   inkscape:version="1.2.2 (b0a8486541, 2022-12-01)"
   xmlns:inkscape="http://www.inkscape.org/namespaces/inkscape"
   xmlns:sodipodi="http://sodipodi.sourceforge.net/DTD/sodipodi-0.dtd"
   xmlns="http://www.w3.org/2000/svg"
   xmlns:svg="http://www.w3.org/2000/svg">
  <sodipodi:namedview
     id="namedview7266"
     pagecolor="#ffffff"
     bordercolor="#000000"
     borderopacity="0.25"
     inkscape:showpageshadow="2"
     inkscape:pageopacity="0.0"
     inkscape:pagecheckerboard="0"
     inkscape:deskcolor="#d1d1d1"
     showgrid="false"
     inkscape:zoom="1.8298115"
     inkscape:cx="758.82134"
     inkscape:cy="567.27155"
     inkscape:window-width="3840"
     inkscape:window-height="2056"
     inkscape:window-x="0"
     inkscape:window-y="0"
     inkscape:window-maximized="1"
     inkscape:current-layer="g122" />
  <defs
     id="defs6">
    <clipPath
       clipPathUnits="userSpaceOnUse"
       id="clipPath18">
      <path
         d="M 0,841.89 H 1190.551 V 0 H 0 Z"
         id="path16" />
    </clipPath>
    <clipPath
       clipPathUnits="userSpaceOnUse"
       id="clipPath130">
      <path
         d="M 0,841.89 H 1190.551 V 0 H 0 Z"
         id="path128" />
    </clipPath>
  </defs>
  <g
     id="g10"
     transform="matrix(1.3333333,0,0,-1.3333333,0,1122.52)" />
  <g
     id="g122"
     transform="matrix(1.3333333,0,0,-1.3333333,73.631772,1096.5515)">
    <g
       id="g124"
       transform="translate(0.81153178,-1.6229928)">
      <g
         id="g126"
         clip-path="url(#clipPath130)">
        <g
           id="g132"
           transform="translate(643.3623,447.3776)" />
        <g
           id="g136"
           transform="translate(763.5488,482.192)" />
        <g
           id="g140"
           transform="translate(499.3535,438.3209)" />
        <g
           id="g144"
           transform="translate(520.9131,441.7408)" />
        <g
           id="g148"
           transform="translate(466.0083,440.8951)" />
        <g
           id="g152"
           transform="translate(861.3447,440.8951)" />
        <g
           id="g156"
           transform="translate(710.6572,422.6627)" />
        <g
           id="g160"
           transform="translate(961.5117,482.1237)" />
        <g
           id="g164"
           transform="translate(299.894,389.1207)">
          <path
             d="m 238.71314,90.091245 c 0,-2.208 -0.842,-4.417 -2.527,-6.102 l -9.89,-9.888 c 0.155,-0.137 0.309,-0.281 0.459,-0.43 3.369,-3.365 3.369,-8.833 0,-12.199 -6.721,-6.723 -15.657,-10.423 -25.165,-10.423 -9.507,0 -18.443,3.7 -25.164,10.423 -11.94,11.935 -13.833,30.793996 -4.496,44.841995 2.123,3.195 5.518,5.338 9.313,5.877 3.793,0.539 7.643,-0.57 10.569,-3.039 5.042,-4.268 6.234,-11.702999 2.767,-17.304999 -2.245,-3.623996 -1.601,-8.384996 1.535,-11.301996 3.49,-3.251 9.213,-3.012 12.757,0.531 l 15.116,15.115996 c 3.37,3.368 8.831,3.368 12.201,-0.002 1.683,-1.685 2.525,-3.892 2.525,-6.098996"
             style="fill:#fad4b5;fill-opacity:1;fill-rule:nonzero;stroke:none"
             id="path166" />
        </g>
        <g
           id="g168"
           transform="translate(329.9727,422.7799)">
          <path
             d="m 238.71314,90.091245 c 2.207,0 4.417,-0.842 6.102,-2.527 l 9.888,-9.89 c 0.137,0.155 0.28,0.31 0.429,0.459 3.366,3.369 8.833,3.369 12.199,0 6.723,-6.721 10.424,-15.657 10.424,-25.164 0,-9.508 -3.701,-18.443 -10.424,-25.164 -11.935,-11.941 -30.794,-13.834 -44.842,-4.497 -3.194,2.123 -5.337,5.518 -5.876,9.313 -0.539,3.793 0.569,7.643 3.039,10.569 4.268,5.042 11.702,6.234 17.305,2.767 3.624,-2.245 8.384,-1.6 11.301,1.535 3.252,3.491 3.012,9.213 -0.531,12.757 l -15.116,15.116 c -3.367,3.37 -3.367,8.831 0.002,12.202 1.685,1.682 3.893,2.524 6.1,2.524"
             style="fill:#d42f19;fill-opacity:1;fill-rule:nonzero;stroke:none"
             id="path170" />
        </g>
        <g
           id="g172"
           transform="translate(266.3232,419.0455)">
          <path
             d="m 238.71314,90.091245 c -2.207,0 -4.417,0.842996 -6.102,2.526996 l -9.888,9.890999 c -0.136,-0.155 -0.28,-0.31 -0.429,-0.459 -3.366,-3.369999 -8.833,-3.369999 -12.199,0 -6.723,6.721 -10.424,15.657 -10.424,25.164 0,9.507 3.701,18.443 10.424,25.164 11.935,11.94 30.794,13.833 44.842,4.497 3.195,-2.123 5.337,-5.518 5.876,-9.313 0.539,-3.793 -0.569,-7.644 -3.039,-10.569 -4.268,-5.043 -11.702,-6.234 -17.304,-2.767 -3.625,2.245 -8.385,1.6 -11.302,-1.536 -3.252,-3.49 -3.012,-9.212 0.531,-12.757 l 15.116,-15.115 c 3.367,-3.371 3.367,-8.830999 -0.002,-12.201999 -1.685,-1.682 -3.892,-2.524996 -6.1,-2.524996"
             style="fill:#d42f19;fill-opacity:1;fill-rule:nonzero;stroke:none"
             id="path174" />
        </g>
        <g
           id="g176"
           transform="translate(296.2407,452.7692)">
          <path
             d="m 238.71314,90.091245 c 0,2.207996 0.842,4.416996 2.527,6.101996 l 9.891,9.887999 c -0.156,0.137 -0.31,0.281 -0.46,0.43 -3.369,3.365 -3.369,8.833 0,12.198 6.721,6.724 15.658,10.424 25.165,10.424 9.507,0 18.443,-3.7 25.164,-10.424 11.94,-11.934 13.833,-30.792995 4.497,-44.841995 -2.123,-3.194 -5.518,-5.337 -9.314,-5.876 -3.793,-0.539 -7.643,0.57 -10.569,3.039 -5.042,4.268 -6.234,11.703 -2.767,17.305 2.245,3.623996 1.601,8.383996 -1.535,11.300996 -3.49,3.251999 -9.213,3.012999 -12.757,-0.53 l -15.116,-15.116996 c -3.37,-3.367 -8.831,-3.367 -12.201,0.003 -1.683,1.685 -2.525,3.892 -2.525,6.099"
             style="fill:#fad4b5;fill-opacity:1;fill-rule:nonzero;stroke:none"
             id="path178" />
        </g>
        <g
           id="g180"
           transform="translate(421.5117,376.1764)">
          <path
             d="m -268.39938,12.000752 h 9.43942 c 1.32533,0 2.25591,1.30732 1.81914,2.559105 l -2.85179,8.196641 c -1.22777,3.527212 -6.2199,3.513704 -7.42816,-0.01951 l -2.80226,-8.186135 c -0.42776,-1.250284 0.50282,-2.550099 1.82365,-2.550099 m 15.08446,-16.1771461 v 0 c 1.32683,0 2.25591,1.3073199 1.81914,2.560606 l -2.46304,7.0589273 c -0.27017,0.7729848 -0.99963,1.2908096 -1.81915,1.2908096 h -15.74637 c -0.82402,0 -1.55798,-0.5238286 -1.82365,-1.305819 l -2.4,-7.0589274 c -0.42627,-1.2487832 0.50281,-2.5455965 1.82364,-2.5455965 h 0.97411 c 0.70845,0 1.28481,-0.5763615 1.28481,-1.2863068 v -2.8878112 c 0,-0.7084443 -0.57636,-1.2833049 -1.28481,-1.2833049 h -13.03867 c -0.70845,0 -1.28481,0.5748606 -1.28481,1.2833049 v 2.8878112 c 0,0.7099453 0.57636,1.2863068 1.28481,1.2863068 h 1.53696 c 0.81951,0 1.54747,0.5148229 1.81914,1.2863067 l 14.21842,40.4878934 c 0.18011,0.513322 0.66642,0.858539 1.21126,0.858539 h 7.53623 c 0.54634,0 1.03264,-0.345217 1.21276,-0.858539 l 14.18839,-40.4863924 c 0.27017,-0.7729848 0.99963,-1.2878077 1.81764,-1.2878077 h 2.17037 c 0.70994,0 1.2848,-0.5763615 1.2848,-1.2863068 v -2.8878112 c 0,-0.7084443 -0.57486,-1.2833049 -1.2848,-1.2833049 h -13.03718 c -0.70995,0 -1.28481,0.5748606 -1.28481,1.2833049 v 2.8878112 c 0,0.7099453 0.57486,1.2863068 1.28481,1.2863068"
             style="fill:#000100;fill-opacity:1;fill-rule:nonzero;stroke:none;stroke-width:1.50094"
             id="path182" />
        </g>
        <g
           id="g184"
           transform="translate(454.6401,364.6998)">
          <path
             d="m -251.804,6.2516482 c 1.75461,0 3.22403,0.2596629 4.40977,0.7789886 0.56285,0.2446534 1.10169,0.5493445 1.62102,0.9110714 1.04015,0.7264556 1.64653,1.9302106 1.64653,3.2000068 v 14.479582 c 0,1.544468 -0.89906,2.952351 -2.30695,3.581246 -0.42927,0.19212 -0.87655,0.355723 -1.34184,0.492309 -1.37486,0.402252 -2.77974,0.603378 -4.21764,0.603378 -1.39738,0 -2.7077,-0.259663 -3.93547,-0.777488 -1.22477,-0.519325 -2.29944,-1.2758 -3.21952,-2.269423 -0.91858,-0.993623 -1.64353,-2.209386 -2.17186,-3.647287 -0.52833,-1.437902 -0.794,-3.087437 -0.794,-4.948604 0,-2.030774 0.25366,-3.816894 0.76248,-5.361363 0.50731,-1.544469 1.21576,-2.83828 2.12533,-3.8844361 0.90807,-1.0476571 1.99775,-1.8356513 3.26605,-2.3654836 1.26979,-0.5268305 2.65516,-0.7924971 4.1561,-0.7924971 m 4.48932,44.9501928 h 5.15874 c 2.17036,0 3.92946,-1.759104 3.92946,-3.929465 V 7.2993053 h 3.53622 c 0.70994,0 1.2848,-0.5763615 1.2848,-1.2848058 V 3.1266883 c 0,-0.7099453 -0.57486,-1.2848058 -1.2848,-1.2848058 h -6.74073 c -1.48893,0 -2.69569,1.2082578 -2.69569,2.6971916 -1.05816,-1.0776759 -2.28443,-1.919704 -3.68031,-2.5215815 -1.39587,-0.6033784 -2.98237,-0.9050677 -4.75798,-0.9050677 -2.21989,0 -4.28819,0.3872429 -6.20189,1.1587268 -1.9137,0.7714839 -3.57374,1.9031937 -4.98013,3.3936284 -1.40638,1.4919358 -2.50507,3.3200824 -3.29906,5.4889429 -0.794,2.167359 -1.19025,4.646914 -1.19025,7.438665 0,2.536591 0.38124,4.84654 1.14222,6.931348 0.76097,2.083306 1.84015,3.85892 3.23602,5.329842 1.39588,1.467921 3.07693,2.610137 5.04467,3.425149 1.96623,0.81351 4.1546,1.220265 6.56512,1.220265 1.58649,0 3.0349,-0.174109 4.34672,-0.522328 1.31032,-0.349719 2.56961,-0.9576 3.77487,-1.823643 v 9.403397 c 0,1.762105 -1.4274,3.189501 -3.188,3.189501 -0.70994,0 -1.28481,0.57486 -1.28481,1.284806 v 2.88631 c 0,0.708444 0.57487,1.284806 1.28481,1.284806"
             style="fill:#000100;fill-opacity:1;fill-rule:nonzero;stroke:none;stroke-width:1.50094"
             id="path186" />
        </g>
        <g
           id="g188"
           transform="translate(470.2583,383.6578)">
          <path
             d="m -243.98019,15.748495 h 8.78651 c 0.70994,0 1.2848,-0.574861 1.2848,-1.283305 v -2.887811 c 0,-0.709945 -0.57486,-1.284806 -1.2848,-1.284806 h -1.07167 c -0.35122,0 -0.59588,-0.3467175 -0.4773,-0.6784255 l 4.13659,-11.5332336 c 1.24878,-3.4851859 6.18238,-3.4671746 7.40565,0.027017 l 4.03002,11.5107194 c 0.11558,0.3302071 -0.12908,0.6739227 -0.4773,0.6739227 -0.70994,0 -1.2848,0.574861 -1.2848,1.284806 v 2.887811 c 0,0.708444 0.57486,1.283305 1.2848,1.283305 h 7.83642 c 0.70844,0 1.2833,-0.574861 1.2833,-1.283305 v -2.887811 c 0,-0.709945 -0.57486,-1.284806 -1.2833,-1.284806 h -1.19175 c -0.21013,0 -0.39775,-0.129081 -0.47279,-0.3257043 L -225.78728,-16.80092 c -0.19062,-0.495311 -0.66792,-0.821015 -1.19925,-0.821015 h -4.07206 c -0.53283,0 -1.00863,0.325704 -1.19925,0.822516 l -10.28145,26.7662877 c -0.0751,0.1951223 -0.26266,0.3257043 -0.47129,0.3257043 h -0.96961 c -0.70995,0 -1.28481,0.574861 -1.28481,1.284806 v 2.887811 c 0,0.708444 0.57486,1.283305 1.28481,1.283305"
             style="fill:#000100;fill-opacity:1;fill-rule:nonzero;stroke:none;stroke-width:1.50094"
             id="path190" />
        </g>
        <g
           id="g192"
           transform="translate(502.3193,364.4469)">
          <path
             d="m -227.91951,6.1249601 c 0.78199,0 1.56398,0.093058 2.34747,0.283678 0.78199,0.1906195 1.52346,0.4502824 2.21989,0.7789885 0.69794,0.3272053 1.34335,0.7084444 1.93622,1.1422164 l 0.0165,0.013509 c 0.93809,0.6889321 1.47542,1.796627 1.48143,2.959857 l 0.007,2.003757 c 0.009,2.092312 -1.68405,3.792878 -3.77637,3.792878 h -3.05891 c -1.14222,0 -2.18387,-0.12608 -3.12496,-0.379739 -0.94109,-0.253659 -1.75611,-0.624391 -2.44204,-1.112197 -0.68743,-0.486305 -1.22176,-1.088182 -1.603,-1.807134 -0.37974,-0.718951 -0.57036,-1.542967 -0.57036,-2.473551 0,-0.867544 0.1576,-1.6240181 0.4758,-2.2694229 0.3167,-0.6454048 0.76698,-1.1842427 1.34784,-1.6165139 0.58237,-0.433772 1.2743,-0.7624782 2.07881,-0.9831166 0.803,-0.2236402 1.69156,-0.333209 2.66417,-0.333209 m 7.99401,-0.9831166 c -1.24728,-1.1647305 -2.62815,-2.1148264 -4.13959,-2.8562914 -1.51295,-0.7399641 -3.23003,-1.1106966 -5.15574,-1.1106966 -1.606,0 -3.08143,0.25516 -4.42477,0.7624782 -1.34334,0.5073182 -2.50057,1.2007531 -3.47318,2.0773029 -0.97261,0.8780507 -1.72909,1.8971899 -2.26792,3.0619204 -0.54034,1.1617286 -0.80901,2.3985043 -0.80901,3.7103265 0,1.395876 0.20563,2.632651 0.61839,3.711828 0.41276,1.079177 0.9621,2.014263 1.64953,2.80676 0.68743,0.793998 1.49044,1.460416 2.41051,1.999254 0.92008,0.540339 1.88218,0.97261 2.88631,1.299816 1.00413,0.328706 2.03078,0.561352 3.07843,0.697937 1.04616,0.138087 2.04579,0.20713 2.99738,0.20713 1.52196,0 2.80076,-0.04653 3.83791,-0.14409 0.0871,-0.0075 0.17261,-0.01501 0.25816,-0.02251 1.38087,-0.138087 2.58012,0.936587 2.59663,2.324958 0,1.161729 -0.1696,2.171862 -0.50732,3.027399 -0.33921,0.857037 -0.81501,1.565482 -1.42739,2.125333 -0.61389,0.561352 -1.34785,0.978614 -2.20488,1.253286 -0.85554,0.276173 -1.81314,0.412759 -2.8713,0.412759 -0.99363,0 -1.94522,-0.06754 -2.8548,-0.205629 -0.90957,-0.138087 -1.7591,-0.3182 -2.5531,-0.540339 -0.79399,-0.22214 -1.52195,-0.475799 -2.18837,-0.760977 -0.20263,-0.08555 -0.39325,-0.17411 -0.57786,-0.262665 -0.6379,-0.310695 -1.40788,-0.03302 -1.71107,0.609382 l -0.84804,1.792125 c -0.28968,0.615386 -0.0495,1.343343 0.54184,1.676551 0.48481,0.273171 0.99663,0.535837 1.53246,0.784993 0.92909,0.432271 1.9077,0.803002 2.93434,1.109195 1.02515,0.306193 2.0713,0.549344 3.13997,0.730958 1.06717,0.178612 2.11933,0.268668 3.15648,0.268668 1.9032,0 3.61577,-0.226642 5.13773,-0.681427 1.52345,-0.456286 2.81276,-1.157226 3.87092,-2.110323 1.05817,-0.951597 1.87168,-2.162857 2.44354,-3.632279 0.57035,-1.469421 0.85553,-3.230025 0.85553,-5.281812 l -0.0315,-16.4308051 h 2.36399 c 0.70844,0 1.2848,-0.5763615 1.2848,-1.2848058 V 3.3797384 c 0,-0.7099453 -0.57636,-1.2848059 -1.2848,-1.2848059 h -8.26419 z"
             style="fill:#000100;fill-opacity:1;fill-rule:nonzero;stroke:none;stroke-width:1.50094"
             id="path194" />
        </g>
        <g
           id="g196"
           transform="translate(534.8345,365.3981)">
          <path
             d="m -211.6313,6.6014556 v 0 c 1.2788,0 2.31595,1.0356495 2.31595,2.3144516 V 21.604866 c 0,2.517078 -0.6394,4.424775 -1.9197,5.726091 -1.27881,1.301316 -3.11446,1.949723 -5.50396,1.949723 -1.37486,0 -2.75873,-0.325704 -4.1546,-0.983117 -0.73546,-0.343715 -1.44991,-0.73396 -2.14485,-1.167732 -1.13921,-0.711446 -1.82064,-1.973738 -1.82064,-3.317081 V 8.9159072 c 0,-1.2788021 1.03565,-2.3144516 2.31445,-2.3144516 h 1.03265 c 0.70995,0 1.28331,-0.5763615 1.28331,-1.2848058 V 2.4288386 c 0,-0.7099453 -0.57336,-1.2848059 -1.28331,-1.2848059 h -12.78502 c -0.70844,0 -1.2848,0.5748606 -1.2848,1.2848059 v 2.8878112 c 0,0.7084443 0.57636,1.2848058 1.2848,1.2848058 h 0.96811 c 1.2788,0 2.31595,1.0356495 2.31595,2.3144516 V 25.268664 c 0,1.814638 -1.47092,3.284059 -3.28406,3.284059 -0.70844,0 -1.2848,0.574861 -1.2848,1.283305 v 2.887811 c 0,0.709946 0.57636,1.284806 1.2848,1.284806 h 7.89946 c 0.70994,0 1.2848,-0.57486 1.2848,-1.284806 v -2.584621 h 0.063 c 0.69794,0.612384 1.44241,1.19475 2.2364,1.744094 0.794,0.549345 1.62252,1.025143 2.49007,1.427395 0.86754,0.400752 1.77111,0.71745 2.7122,0.951597 0.94109,0.232646 1.93021,0.348219 2.96586,0.348219 1.7561,0 3.34109,-0.243153 4.75948,-0.727957 1.41539,-0.487806 2.62065,-1.22777 3.61577,-2.221393 0.99362,-0.995124 1.76061,-2.267923 2.29944,-3.822898 0.53884,-1.554975 0.80901,-3.389125 0.80901,-5.503952 V 8.9159072 c 0,-1.2788021 1.03715,-2.3144516 2.31595,-2.3144516 h 0.96811 c 0.70844,0 1.28481,-0.5763615 1.28481,-1.2848058 V 2.4288386 c 0,-0.7099453 -0.57637,-1.2848059 -1.28481,-1.2848059 h -12.78502 c -0.70994,0 -1.2848,0.5748606 -1.2848,1.2848059 V 4.285503 c 0,1.2788021 1.03715,2.3159526 2.31595,2.3159526"
             style="fill:#000100;fill-opacity:1;fill-rule:nonzero;stroke:none;stroke-width:1.50094"
             id="path198" />
        </g>
        <g
           id="g200"
           transform="translate(565.4116,377.8248)">
          <path
             d="m -196.31397,12.826504 c -1.19625,0 -2.35347,0.511821 -3.10244,1.445406 -0.69794,0.869045 -1.50094,1.550473 -2.41051,2.042782 -1.36436,0.739964 -2.94485,1.110696 -4.74298,1.110696 -1.37486,0 -2.66417,-0.285179 -3.86943,-0.855536 -1.20525,-0.571859 -2.25891,-1.38687 -3.15648,-2.443533 -0.89906,-1.056663 -1.6075,-2.341468 -2.12533,-3.852916 -0.51782,-1.5129494 -0.77749,-3.2000075 -0.77749,-5.0596739 0,-1.8401541 0.25967,-3.5001952 0.77749,-4.98162439 0.51783,-1.47992821 1.23227,-2.74372081 2.14184,-3.78987701 0.90807,-1.0461561 1.96023,-1.8506607 3.15648,-2.4105118 1.19325,-0.5613521 2.47806,-0.8405272 3.85292,-0.8405272 2.03077,0 3.79588,0.4908078 5.29832,1.4739244 1.20526,0.7909961 2.21539,1.8776777 3.0259,3.2615457 0.34222,0.586868 1.07317,0.8150111 1.68106,0.5148228 l 2.58612,-1.2773011 c 0.66491,-0.3257042 0.91557,-1.1482201 0.54784,-1.792124 -0.50281,-0.8765497 -1.07467,-1.688559 -1.71858,-2.4360278 -0.93058,-1.0776759 -1.98274,-1.997753 -3.15648,-2.7587303 -1.17373,-0.7624784 -2.46454,-1.3478454 -3.87092,-1.7621054 -1.40639,-0.411258 -2.89232,-0.618388 -4.4563,-0.618388 -2.28293,0 -4.39325,0.42927 -6.32797,1.286307 -1.93471,0.855537 -3.60676,2.0562898 -5.01314,3.5992576 -1.40638,1.5429677 -2.50057,3.3831218 -3.28256,5.5204624 -0.78349,2.13583955 -1.17374,4.4728053 -1.17374,7.0108971 0,2.536591 0.41276,4.8735569 1.23678,7.0108969 0.82552,2.134339 1.95573,3.968489 3.39513,5.503952 1.4379,1.532462 3.11895,2.731714 5.04316,3.599258 1.92421,0.866043 3.9865,1.299815 6.18538,1.299815 2.0728,0 4.03303,-0.358725 5.88519,-1.077676 1.71858,-0.66942 3.24354,-1.655538 4.57037,-2.964359 0.19362,-0.19062 0.45178,-0.30319 0.72495,-0.30319 h 1.61952 c 0.70994,0 1.2848,-0.574861 1.2848,-1.284806 v -2.887811 c 0,-0.708445 -0.57486,-1.283305 -1.2848,-1.283305 z"
             style="fill:#000100;fill-opacity:1;fill-rule:nonzero;stroke:none;stroke-width:1.50094"
             id="path202" />
        </g>
        <g
           id="g204"
           transform="translate(582.1118,380.9313)">
          <path
             d="m -187.94815,14.382678 c -1.37486,0 -2.57411,-0.195122 -3.60075,-0.586868 -1.02515,-0.390245 -1.8987,-0.950096 -2.61615,-1.681054 -0.72045,-0.729458 -1.29531,-1.624019 -1.72908,-2.6806815 -0.13959,-0.3377118 -0.26717,-0.691934 -0.38274,-1.0566627 -0.39475,-1.2352748 0.54484,-2.4960656 1.84166,-2.4960656 h 12.40377 c 1.22027,0 2.14035,1.1227042 1.88969,2.3174535 -0.0796,0.3692316 -0.16961,0.7279566 -0.27167,1.0776759 -0.30769,1.0356494 -0.77749,1.9347134 -1.41239,2.6956904 -0.63489,0.760978 -1.4484,1.353849 -2.44203,1.775614 -0.99362,0.423265 -2.22139,0.634898 -3.68031,0.634898 m -7.1745,-13.1017171 c -1.18574,0 -2.0788,-1.05966459 -1.90319,-2.23189981 0.0165,-0.10806779 0.0345,-0.21463459 0.0525,-0.32120149 0.13809,-0.7714838 0.33321,-1.5069451 0.58687,-2.2033819 0.78199,-2.1163274 2.03528,-3.7073252 3.75986,-4.7744945 1.72308,-1.0686703 3.6743,-1.6015045 5.85217,-1.6015045 1.71257,0 3.37862,0.2371487 4.99663,0.7129472 1.28781,0.3782372 2.62665,0.9275817 4.01502,1.6495345 0.60788,0.3166987 1.35835,0.1095688 1.70657,-0.4818021 l 1.12571,-1.9061956 c 0.35122,-0.5958737 0.17261,-1.3658567 -0.41276,-1.7335877 -1.81464,-1.142216 -3.63678,-2.015764 -5.46793,-2.619142 -2.17787,-0.718951 -4.44129,-1.079177 -6.78876,-1.079177 -2.21989,0 -4.27618,0.370732 -6.16887,1.110696 -1.89268,0.739965 -3.52121,1.840155 -4.88556,3.29907 -1.36436,1.4589146 -2.43153,3.2780556 -3.20451,5.4559215 -0.77148,2.177866 -1.15723,4.71595786 -1.15723,7.6127747 0,2.3489733 0.32871,4.5628618 0.98312,6.6461684 0.65591,2.0833064 1.63453,3.9024474 2.93434,5.4574224 1.30132,1.553475 2.91333,2.784247 4.83753,3.695318 1.92421,0.90807 4.16662,1.362855 6.72572,1.362855 2.47355,0 4.54035,-0.375235 6.20189,-1.125706 1.66004,-0.750471 3.01389,-1.744094 4.06005,-2.98087 1.04766,-1.238276 1.84015,-2.649161 2.37899,-4.235656 0.53884,-1.5849943 0.91407,-3.2045101 1.12571,-4.8540447 0.10656,-0.8030036 0.17411,-1.6165138 0.20563,-2.4420316 0.015,-0.3722334 0.027,-0.7399641 0.0345,-1.101691 0.015,-0.7204518 -0.56736,-1.3103218 -1.28631,-1.3103218 z"
             style="fill:#000100;fill-opacity:1;fill-rule:nonzero;stroke:none;stroke-width:1.50094"
             id="path206" />
        </g>
        <g
           id="g208"
           transform="translate(608.2871,364.6998)">
          <path
             d="m -174.83586,6.2516482 c 1.75461,0 3.22403,0.2596629 4.40977,0.7789886 0.94259,0.4112579 1.82665,0.9891204 2.64916,1.7320864 0.39925,0.3587249 0.61689,0.8780507 0.61689,1.4138868 v 16.619924 c 0,0.640902 -0.3167,1.24428 -0.84803,1.601504 -0.84653,0.565855 -1.77862,0.998126 -2.79926,1.296814 -1.37486,0.402252 -2.78124,0.603378 -4.21914,0.603378 -1.39588,0 -2.7077,-0.259663 -3.93397,-0.777488 -1.22627,-0.519325 -2.29944,-1.2758 -3.21952,-2.269423 -0.92008,-0.993623 -1.64353,-2.209386 -2.17336,-3.647287 -0.52834,-1.437902 -0.7925,-3.087437 -0.7925,-4.948604 0,-2.030774 0.25366,-3.816894 0.76098,-5.361363 0.50882,-1.544469 1.21576,-2.83828 2.12533,-3.8844361 0.90957,-1.0476571 1.99925,-1.8356513 3.26755,-2.3654836 1.26829,-0.5268305 2.65366,-0.7924971 4.1561,-0.7924971 m 4.48782,44.9501928 h 7.80339 c 0.70995,0 1.28481,-0.576362 1.28481,-1.284806 V 9.2250131 c 0,-1.0641674 0.86304,-1.9257078 1.92721,-1.9257078 h 1.61051 c 0.70994,0 1.2848,-0.5763615 1.2848,-1.2848058 V 3.1266883 c 0,-0.7099453 -0.57486,-1.2848058 -1.2848,-1.2848058 h -8.15312 c -0.70994,0 -1.2848,0.5748605 -1.2848,1.2848058 v 1.4123858 c -1.05816,-1.0776759 -2.28293,-1.919704 -3.67881,-2.5215815 -1.39737,-0.6033784 -2.98237,-0.9050677 -4.75948,-0.9050677 -2.2199,0 -4.28669,0.3872429 -6.20189,1.1587268 -1.9137,0.7714839 -3.57374,1.9031937 -4.97863,3.3936284 -1.40788,1.4919358 -2.50657,3.3200824 -3.29906,5.4889429 -0.794,2.167359 -1.19025,4.646914 -1.19025,7.438665 0,2.536591 0.38124,4.84654 1.14071,6.931348 0.76248,2.083306 1.84166,3.85892 3.23753,5.329842 1.39438,1.467921 3.07693,2.610137 5.04317,3.425149 1.96773,0.81351 4.1561,1.220265 6.56662,1.220265 1.58649,0 3.0349,-0.174109 4.34672,-0.522328 1.31032,-0.349719 2.56961,-0.9576 3.77337,-1.823643 V 43.81871 c 0,1.064167 -0.86154,1.927209 -1.92571,1.927209 h -1.26229 c -0.70844,0 -1.28331,0.57486 -1.28331,1.284806 v 2.88631 c 0,0.708444 0.57487,1.284806 1.28331,1.284806"
             style="fill:#000100;fill-opacity:1;fill-rule:nonzero;stroke:none;stroke-width:1.50094"
             id="path210" />
        </g>
        <g
           id="g212"
           transform="translate(637.3242,393.9186)">
          <path
             d="m -160.28997,20.888554 h 12.78502 c 0.70844,0 1.2833,-0.57486 1.2833,-1.283305 v -2.920832 c 0,-0.708444 -0.57486,-1.283304 -1.2833,-1.283304 h -1.35835 c -1.06417,0 -1.92571,-0.861541 -1.92571,-1.925708 v -33.293882 c 0,-1.064167 0.86154,-1.927209 1.92571,-1.927209 h 1.35835 c 0.70844,0 1.2833,-0.57486 1.2833,-1.284806 v -2.887811 c 0,-0.708444 -0.57486,-1.283305 -1.2833,-1.283305 h -12.78502 c -0.70995,0 -1.28331,0.574861 -1.28331,1.283305 v 2.887811 c 0,0.709946 0.57336,1.284806 1.28331,1.284806 h 1.35685 c 1.06267,0 1.92721,0.863042 1.92721,1.927209 v 33.293882 c 0,1.064167 -0.86454,1.925708 -1.92721,1.925708 h -1.35685 c -0.70995,0 -1.28331,0.57486 -1.28331,1.283304 v 2.920832 c 0,0.708445 0.57336,1.283305 1.28331,1.283305"
             style="fill:#000100;fill-opacity:1;fill-rule:nonzero;stroke:none;stroke-width:1.50094"
             id="path214" />
        </g>
        <g
           id="g216"
           transform="translate(667.5352,365.5133)">
          <path
             d="m -145.15603,6.659164 h 1.42139 c 1.06267,0 1.92571,0.8630413 1.92571,1.9272088 V 21.664075 c 0,2.517079 -0.6394,4.424775 -1.9182,5.726091 -1.28031,1.301317 -3.11446,1.949723 -5.50396,1.949723 -1.37486,0 -2.76023,-0.325704 -4.1546,-0.981615 -1.10169,-0.517825 -2.15385,-1.133211 -3.16249,-1.844657 -0.50731,-0.360226 -0.8045,-0.947094 -0.8045,-1.568484 V 8.5863728 c 0,-1.0641675 0.86304,-1.9272088 1.92721,-1.9272088 h 1.41989 c 0.70994,0 1.28481,-0.5748605 1.28481,-1.2833048 V 2.4880479 c 0,-0.7099452 -0.57487,-1.2848058 -1.28481,-1.2848058 h -12.78352 c -0.70994,0 -1.2863,0.5748606 -1.2863,1.2848058 v 2.8878113 c 0,0.7084443 0.57636,1.2833048 1.2863,1.2833048 h 1.35685 c 1.06267,0 1.92571,0.8630413 1.92571,1.9272088 V 26.684724 c 0,1.064167 -0.86304,1.927209 -1.92571,1.927209 h -1.35685 c -0.70994,0 -1.2863,0.57486 -1.2863,1.283305 v 2.887811 c 0,0.709945 0.57636,1.284806 1.2863,1.284806 h 7.89946 c 0.70844,0 1.2833,-0.574861 1.2833,-1.284806 v -2.584621 h 0.0645 c 0.69794,0.612384 1.44241,1.194749 2.2349,1.744094 0.794,0.549344 1.62252,1.025143 2.49007,1.427395 0.86904,0.400751 1.77111,0.71745 2.7137,0.951597 0.93959,0.232646 1.92871,0.348218 2.96586,0.348218 1.7546,0 3.34109,-0.243152 4.75798,-0.727957 1.41689,-0.487805 2.62215,-1.22777 3.61727,-2.221393 0.99362,-0.995124 1.7606,-2.267922 2.29944,-3.822897 0.53734,-1.554976 0.80751,-3.389126 0.80751,-5.503952 V 8.5863728 c 0,-1.0641675 0.86304,-1.9272088 1.92721,-1.9272088 h 1.35835 c 0.70844,0 1.2833,-0.5748605 1.2833,-1.2833048 V 2.4880479 c 0,-0.7099452 -0.57486,-1.2848058 -1.2833,-1.2848058 h -12.78652 c -0.70844,0 -1.28331,0.5748606 -1.28331,1.2848058 v 2.8878113 c 0,0.7084443 0.57487,1.2833048 1.28331,1.2833048"
             style="fill:#000100;fill-opacity:1;fill-rule:nonzero;stroke:none;stroke-width:1.50094"
             id="path218" />
        </g>
        <g
           id="g220"
           transform="translate(692.3477,364.816)">
          <path
             d="m -132.72642,6.3098576 c 0.97111,0 1.85966,0.094559 2.66417,0.2851789 0.8045,0.1906195 1.53396,0.4382749 2.18837,0.7459678 0.65591,0.307693 1.23227,0.6604142 1.73059,1.0641675 0.25516,0.2056289 0.49381,0.4187626 0.71294,0.6363991 0.36473,0.3647288 0.57036,0.8570375 0.57036,1.3718601 v 16.315233 c 0,0.625893 -0.30319,1.214262 -0.81351,1.575989 -0.87805,0.62289 -1.84766,1.095687 -2.91333,1.416888 -1.40788,0.421765 -2.85028,0.634898 -4.33021,0.634898 -1.39588,0 -2.7077,-0.259662 -3.93397,-0.777487 -1.22627,-0.519326 -2.29944,-1.2758 -3.21952,-2.269424 -0.92008,-0.993623 -1.64353,-2.209385 -2.17336,-3.647287 -0.52833,-1.437902 -0.7925,-3.087437 -0.7925,-4.948604 0,-2.030774 0.25366,-3.816894 0.76248,-5.361362 0.50732,-1.544469 1.21426,-2.838281 2.12533,-3.8844367 0.90807,-1.0476571 1.99776,-1.8356513 3.26605,-2.3654836 1.2683,-0.5283314 2.65367,-0.7924971 4.15611,-0.7924971 m 7.86643,-1.5234555 c -1.07918,-1.1407154 -2.33096,-2.0292727 -3.75986,-2.6641709 -1.42589,-0.6333973 -3.04991,-0.9515969 -4.86905,-0.9515969 -2.21839,0 -4.28669,0.3872429 -6.20039,1.1587268 -1.9137,0.7714838 -3.57524,1.9031936 -4.98012,3.3936284 -1.40789,1.4919358 -2.50657,3.3200824 -3.29907,5.4889425 -0.794,2.16736 -1.19025,4.646915 -1.19025,7.438666 0,2.536591 0.38124,4.84804 1.14072,6.931347 0.76248,2.083307 1.84165,3.85892 3.23753,5.329843 1.39437,1.46792 3.07693,2.610137 5.04316,3.425148 1.96773,0.81351 4.15611,1.220265 6.56662,1.220265 1.64953,0 3.13547,-0.184615 4.4578,-0.555348 1.32082,-0.369232 2.60563,-1.010134 3.85291,-1.918203 v 0.397749 c 0,0.708445 0.57486,1.283305 1.28481,1.283305 h 3.33059 c 0.70994,0 1.2848,-0.57486 1.2848,-1.283305 V 3.201408 c 0,-5.2022628 -1.23077,-9.1347292 -3.69532,-11.801902 -2.46454,-2.66267 -6.29644,-3.995506 -11.49871,-3.995506 -1.14221,0 -2.33696,0.08405 -3.58575,0.253659 -1.24728,0.169606 -2.47805,0.438275 -3.69531,0.809007 -1.21577,0.369232 -2.40001,0.840528 -3.55273,1.412386 -0.77599,0.3842413 -1.50995,0.8255181 -2.20489,1.3253316 -0.56285,0.4037532 -0.70994,1.1797399 -0.3257,1.7576023 l 1.7516,2.6461597 c 0.39475,0.5973746 1.20526,0.7654801 1.79062,0.3542221 0.36023,-0.2521581 0.74147,-0.4923087 1.14672,-0.7234537 0.81351,-0.4652918 1.68556,-0.8615404 2.61614,-1.1887456 0.93059,-0.3287061 1.89119,-0.588369 2.88781,-0.7774876 0.99363,-0.1906196 1.98725,-0.2851789 2.98087,-0.2851789 1.62852,0 3.03941,0.1681055 4.23416,0.5073182 1.19475,0.3377118 2.17786,0.9350865 2.95085,1.792124 0.77298,0.8570376 1.34784,2.0142634 1.72908,3.4746793 0.37974,1.4574141 0.57036,3.3080748 0.57036,5.5504812 z"
             style="fill:#000100;fill-opacity:1;fill-rule:nonzero;stroke:none;stroke-width:1.50094"
             id="path222" />
        </g>
        <g
           id="g224"
           transform="translate(722.2529,379.1451)">
          <path
             d="m -117.74567,13.487897 h -3.45817 c -0.70844,0 -1.2848,0.576361 -1.2848,1.284806 v 0.747468 c -0.69794,0 -1.41239,-0.133583 -2.14185,-0.397749 -0.72795,-0.265667 -1.41088,-0.664917 -2.04428,-1.205256 -0.6349,-0.538838 -1.19025,-1.226269 -1.66755,-2.062293 -0.44728,-0.787995 -0.77898,-1.712575 -0.99362,-2.7752411 -0.024,-0.1260791 -0.036,-0.25516 -0.036,-0.384241 V -5.0457274 c 0,-1.0641675 0.86154,-1.9272088 1.92571,-1.9272088 h 2.37298 c 0.70995,0 1.28481,-0.5748605 1.28481,-1.2833048 v -2.887811 c 0,-0.709946 -0.57486,-1.284806 -1.28481,-1.284806 h -13.73661 c -0.70995,0 -1.28481,0.57486 -1.28481,1.284806 v 2.887811 c 0,0.7084443 0.57486,1.2833048 1.28481,1.2833048 h 1.32833 c 1.06267,0 1.92571,0.8615404 1.92721,1.9242069 l 0.0255,18.0983513 c 0.001,1.065668 -0.86154,1.93021 -1.92721,1.93021 h -1.35385 c -0.70995,0 -1.28481,0.574861 -1.28481,1.284806 v 2.886311 c 0,0.709945 0.57486,1.284805 1.28481,1.284805 h 7.93097 c 0.70995,0 1.28331,-0.57486 1.28331,-1.284805 v -3.25254 c 0.38124,0.678425 0.81051,1.30732 1.2863,1.888184 0.4758,0.582365 1.00413,1.089683 1.5865,1.523455 0.58086,0.432271 1.22627,0.771484 1.93471,1.014637 0.70695,0.243152 1.47543,0.364728 2.29945,0.364728 h 3.10844 c 0.55385,0 1.1077,-0.0075 1.66305,-0.02101 0.69643,-0.01801 1.25478,-0.585367 1.25478,-1.284806 v -4.610891 c 0,-0.708445 -0.57335,-1.284806 -1.2833,-1.284806"
             style="fill:#000100;fill-opacity:1;fill-rule:nonzero;stroke:none;stroke-width:1.50094"
             id="path226" />
        </g>
        <g
           id="g228"
           transform="translate(737.9551,381.0475)">
          <path
             d="m -109.87979,14.440888 c -1.37486,0 -2.57411,-0.195123 -3.59926,-0.586868 -1.02664,-0.390245 -1.89869,-0.950096 -2.61914,-1.681055 -0.71745,-0.729457 -1.29531,-1.624018 -1.72758,-2.6806811 -0.13959,-0.3377118 -0.26717,-0.691934 -0.38274,-1.0566628 -0.39475,-1.2352747 0.54484,-2.4960655 1.84165,-2.4960655 h 12.40378 c 1.22027,0 2.14035,1.1227042 1.88819,2.3159526 -0.0781,0.3707325 -0.16811,0.7294575 -0.27017,1.0791768 -0.3077,1.03565 -0.77749,1.934713 -1.41239,2.695691 -0.6349,0.760977 -1.44841,1.353849 -2.44203,1.775613 -0.99512,0.423266 -2.21989,0.634899 -3.68031,0.634899 m -7.173,-13.1017177 c -1.18724,0 -2.0803,-1.0596646 -1.90469,-2.23340076 0.0165,-0.10656684 0.0345,-0.21313364 0.0525,-0.31970054 0.13809,-0.7714838 0.33321,-1.5069451 0.58687,-2.2033819 0.78199,-2.1163274 2.03528,-3.7073252 3.75986,-4.7744945 1.72308,-1.0686703 3.6743,-1.6015045 5.85217,-1.6015045 1.71407,0 3.37862,0.2371487 4.99663,0.7129472 1.28781,0.3782372 2.62665,0.9275817 4.01502,1.6495345 0.607881,0.3166987 1.356851,0.1095688 1.70657,-0.4818022 l 1.125706,-1.9061955 c 0.351221,-0.5958741 0.172609,-1.3658571 -0.412759,-1.7335871 -1.814638,-1.142217 -3.636777,-2.015764 -5.466427,-2.619143 -2.17937,-0.718951 -4.44129,-1.077676 -6.79026,-1.077676 -2.21989,0 -4.27618,0.369232 -6.16887,1.109196 -1.89269,0.739964 -3.52121,1.840154 -4.88556,3.299069 -1.36436,1.458915 -2.43153,3.278056 -3.20451,5.4559219 -0.77149,2.177866 -1.15723,4.71595784 -1.15723,7.6127747 0,2.3489733 0.32871,4.5628618 0.98312,6.6461684 0.65591,2.083307 1.63452,3.902448 2.93434,5.455922 1.30131,1.554975 2.91333,2.785747 4.83753,3.696819 1.92421,0.908069 4.16662,1.362854 6.72572,1.362854 2.47505,0 4.54185,-0.375235 6.20189,-1.125706 1.66004,-0.75047 3.01389,-1.744094 4.060047,-2.980869 1.047657,-1.238277 1.840154,-2.649162 2.378992,-4.237158 0.540339,-1.5849939 0.915574,-3.2030087 1.125706,-4.8525433 0.106567,-0.8030036 0.174109,-1.6165138 0.20713,-2.4420316 0.03002,-0.8255178 0.04653,-1.6285214 0.04653,-2.4120128 z"
             style="fill:#000100;fill-opacity:1;fill-rule:nonzero;stroke:none;stroke-width:1.50094"
             id="path230" />
        </g>
        <g
           id="g232"
           transform="translate(764.1299,364.816)">
          <path
             d="m -96.767748,6.3098576 c 1.756102,0 3.224022,0.2596629 4.409766,0.7774876 0.942591,0.4127589 1.826646,0.9906214 2.650662,1.7335873 0.399251,0.358725 0.616887,0.8780507 0.616887,1.4138865 v 16.619924 c 0,0.642403 -0.316698,1.244281 -0.848032,1.600004 -0.846531,0.567356 -1.780116,0.999627 -2.799255,1.298314 -1.374863,0.402252 -2.782746,0.603378 -4.220647,0.603378 -1.395876,0 -2.707699,-0.259662 -3.932463,-0.777487 -1.22627,-0.519326 -2.29945,-1.2758 -3.22102,-2.269424 -0.91858,-0.993623 -1.64353,-2.209385 -2.17187,-3.647287 -0.52833,-1.437902 -0.79249,-3.087437 -0.79249,-4.948604 0,-2.030774 0.25366,-3.816894 0.76097,-5.361362 0.50732,-1.544469 1.21577,-2.838281 2.12534,-3.8844367 0.90807,-1.0476571 1.99925,-1.8356513 3.26605,-2.3654836 1.269792,-0.5283314 2.655161,-0.7924971 4.156102,-0.7924971 m 4.487815,44.9501924 h 7.804895 c 0.709945,0 1.284806,-0.576361 1.284806,-1.284806 V 7.3560138 h 3.536218 c 0.709945,0 1.286306,-0.5748606 1.286306,-1.2833049 V 3.1848977 c 0,-0.7099453 -0.576361,-1.2848059 -1.286306,-1.2848059 h -8.151613 c -0.709945,0 -1.284806,0.5748606 -1.284806,1.2848059 v 1.4123858 c -1.058163,-1.0776759 -2.284433,-1.919704 -3.680308,-2.5215815 -1.395875,-0.6033785 -2.98087,-0.9050677 -4.757984,-0.9050677 -2.219892,0 -4.286685,0.3872429 -6.201885,1.1587268 -1.91371,0.7714838 -3.57525,1.9031936 -4.98013,3.3936284 -1.40788,1.4919358 -2.50657,3.3200824 -3.29907,5.4889425 -0.794,2.16736 -1.18874,4.646915 -1.18874,7.438666 0,2.536591 0.38124,4.84804 1.14071,6.931347 0.76098,2.083307 1.84016,3.85892 3.23603,5.329843 1.39588,1.46792 3.07843,2.610137 5.04316,3.425148 1.96774,0.81351 4.157613,1.220265 6.566623,1.220265 1.586495,0 3.034904,-0.174109 4.346727,-0.522327 1.311822,-0.34972 2.569611,-0.957601 3.774867,-1.823644 v 10.665689 c 0,1.064168 -0.863041,1.925708 -1.927208,1.925708 h -1.262292 c -0.708445,0 -1.283305,0.576362 -1.283305,1.286307 v 2.88631 c 0,0.708445 0.57486,1.284806 1.283305,1.284806"
             style="fill:#000100;fill-opacity:1;fill-rule:nonzero;stroke:none;stroke-width:1.50094"
             id="path234" />
        </g>
        <g
           id="g236"
           transform="translate(782.8447,391.5309)">
          <path
             d="m -87.39273,19.692456 c 0,0.549345 0.109569,1.073174 0.333209,1.569985 0.220638,0.496812 0.516324,0.930584 0.887056,1.299815 0.370733,0.369232 0.810509,0.666418 1.316326,0.888558 0.507318,0.222139 1.047657,0.33471 1.619515,0.33471 0.549345,0 1.071673,-0.112571 1.568484,-0.33471 0.498313,-0.22214 0.932085,-0.519326 1.301316,-0.888558 0.370733,-0.369231 0.666418,-0.803003 0.887057,-1.299815 0.22364,-0.496811 0.33471,-1.02064 0.33471,-1.569985 0,-0.571858 -0.11107,-1.110696 -0.33471,-1.618014 -0.220639,-0.507319 -0.516324,-0.957601 -0.887057,-1.349347 -0.369231,-0.390244 -0.803003,-0.696436 -1.301316,-0.918576 -0.496811,-0.222139 -1.019139,-0.33471 -1.568484,-0.33471 -0.571858,0 -1.112197,0.112571 -1.619515,0.33471 -0.505817,0.22214 -0.945593,0.528332 -1.316326,0.918576 -0.370732,0.391746 -0.666418,0.842028 -0.887056,1.349347 -0.22364,0.507318 -0.333209,1.046156 -0.333209,1.618014 M -89.756713,8.0496542 h 8.153114 c 0.709945,0 1.284806,-0.5748606 1.284806,-1.2833049 V -17.430327 c 0,-1.064167 0.86154,-1.928709 1.925707,-1.928709 h 1.73809 c 0.709946,0 1.284806,-0.57336 1.284806,-1.283305 v -2.887811 c 0,-0.709946 -0.57486,-1.283305 -1.284806,-1.283305 h -13.037176 c -0.709946,0 -1.286307,0.573359 -1.286307,1.283305 v 2.887811 c 0,0.709945 0.576361,1.283305 1.286307,1.283305 h 1.48293 c 1.064167,0 1.925707,0.864542 1.925707,1.928709 V 0.66652354 c 0,1.06416746 -0.86154,1.92720876 -1.925707,1.92720876 h -1.547471 c -0.709945,0 -1.284806,0.5748605 -1.284806,1.2848058 v 2.8878112 c 0,0.7084443 0.574861,1.2833049 1.284806,1.2833049"
             style="fill:#000100;fill-opacity:1;fill-rule:nonzero;stroke:none;stroke-width:1.50094"
             id="path238" />
        </g>
        <g
           id="g240"
           transform="translate(804.7715,381.0475)">
          <path
             d="m -76.408689,14.440888 c -1.374862,0 -2.575615,-0.195123 -3.600758,-0.586868 -1.026644,-0.390245 -1.898691,-0.950096 -2.617642,-1.681055 -0.718951,-0.729457 -1.295312,-1.624018 -1.729084,-2.6806811 -0.138087,-0.3377118 -0.265667,-0.691934 -0.38274,-1.0566628 -0.393247,-1.2352747 0.544841,-2.4960655 1.843156,-2.4960655 h 12.402278 c 1.221767,0 2.141844,1.1227042 1.889685,2.3159526 -0.07805,0.3707325 -0.168105,0.7294575 -0.270169,1.0791768 -0.309194,1.03565 -0.777488,1.934713 -1.412386,2.695691 -0.634898,0.760977 -1.449909,1.353849 -2.443532,1.775613 -0.993624,0.423266 -2.219893,0.634899 -3.678808,0.634899 m -7.1745,-13.1017177 c -1.185743,0 -2.078803,-1.0596646 -1.903193,-2.23340076 0.01651,-0.10656684 0.03452,-0.21313364 0.05253,-0.31970054 0.136585,-0.7714838 0.333209,-1.5069451 0.586868,-2.2033819 0.78199,-2.1163274 2.033775,-3.7073252 3.759858,-4.7744945 1.72158,-1.0686703 3.672804,-1.6015045 5.85217,-1.6015045 1.712575,0 3.377119,0.2371487 4.995133,0.7129472 1.289309,0.3782372 2.626648,0.9275817 4.016519,1.6495345 0.607882,0.3166987 1.356851,0.1095688 1.706571,-0.4818022 l 1.125706,-1.9061955 c 0.35122,-0.5958741 0.172608,-1.3658571 -0.412759,-1.7335871 -1.816139,-1.142217 -3.636781,-2.015764 -5.467929,-2.619143 -2.177866,-0.718951 -4.441286,-1.077676 -6.788758,-1.077676 -2.219893,0 -4.276182,0.369232 -6.17037,1.109196 -1.892687,0.739964 -3.521209,1.840154 -4.884064,3.299069 -1.364355,1.458915 -2.433026,3.278056 -3.204509,5.4559219 -0.771484,2.177866 -1.157226,4.71595784 -1.157226,7.6127747 0,2.3489733 0.327205,4.5628618 0.983116,6.6461684 0.655912,2.083307 1.633025,3.902448 2.934341,5.455922 1.301316,1.554975 2.913327,2.785747 4.837534,3.696819 1.924207,0.908069 4.165112,1.362854 6.724217,1.362854 2.475053,0 4.541849,-0.375235 6.20189,-1.125706 1.661542,-0.75047 3.01389,-1.744094 4.060046,-2.980869 1.047657,-1.238277 1.841655,-2.649162 2.378992,-4.237158 0.540339,-1.5849939 0.915575,-3.2030087 1.127207,-4.8525433 0.106567,-0.8030036 0.17411,-1.6165138 0.205629,-2.4420316 0.03152,-0.8255178 0.04803,-1.6285214 0.04803,-2.4120128 z"
             style="fill:#000100;fill-opacity:1;fill-rule:nonzero;stroke:none;stroke-width:1.50094"
             id="path242" />
        </g>
        <g
           id="g244"
           transform="translate(835.4375,365.5133)">
          <path
             d="m -61.04682,6.659164 h 1.41989 c 1.062667,0 1.925708,0.8630413 1.925708,1.9272088 V 21.664075 c 0,2.517079 -0.639401,4.424775 -1.918203,5.726091 -1.278802,1.301317 -3.114454,1.949723 -5.503952,1.949723 -1.374863,0 -2.760231,-0.325704 -4.154606,-0.981615 -1.10019,-0.517825 -2.153851,-1.133211 -3.162483,-1.844657 -0.507319,-0.360226 -0.804505,-0.947094 -0.804505,-1.568484 V 8.5863728 c 0,-1.0641675 0.863041,-1.9272088 1.927209,-1.9272088 h 1.421391 c 0.708445,0 1.283305,-0.5748605 1.283305,-1.2833048 V 2.4880479 c 0,-0.7099452 -0.57486,-1.2848058 -1.283305,-1.2848058 h -12.785018 c -0.709946,0 -1.286307,0.5748606 -1.286307,1.2848058 v 2.8878113 c 0,0.7084443 0.576361,1.2833048 1.286307,1.2833048 h 1.35535 c 1.064167,0 1.927208,0.8630413 1.927208,1.9272088 V 26.684724 c 0,1.064167 -0.863041,1.927209 -1.927208,1.927209 h -1.35535 c -0.709946,0 -1.286307,0.57486 -1.286307,1.283305 v 2.887811 c 0,0.709945 0.576361,1.284806 1.286307,1.284806 h 7.257051 c 1.064168,0 1.925708,-0.861541 1.925708,-1.925708 v -1.943719 h 0.06454 c 0.697938,0.612384 1.442405,1.194749 2.234902,1.744094 0.793998,0.549344 1.622518,1.025143 2.491563,1.427395 0.867544,0.400751 1.76961,0.71745 2.712201,0.951597 0.939589,0.232646 1.92871,0.348218 2.96586,0.348218 1.756101,0 3.341096,-0.243152 4.757984,-0.727957 1.416889,-0.487805 2.622145,-1.22777 3.617269,-2.221393 0.993623,-0.995124 1.760604,-2.267922 2.299442,-3.822897 0.538838,-1.554976 0.809008,-3.389126 0.809008,-5.503952 V 8.5863728 c 0,-1.0641675 0.86154,-1.9272088 1.925707,-1.9272088 h 1.358352 c 0.708445,0 1.283305,-0.5748605 1.283305,-1.2833048 V 2.4880479 c 0,-0.7099452 -0.57486,-1.2848058 -1.283305,-1.2848058 H -61.04682 c -0.709946,0 -1.284806,0.5748606 -1.284806,1.2848058 v 2.8878113 c 0,0.7084443 0.57486,1.2833048 1.284806,1.2833048"
             style="fill:#000100;fill-opacity:1;fill-rule:nonzero;stroke:none;stroke-width:1.50094"
             id="path246" />
        </g>
        <g
           id="g248"
           transform="translate(857.0947,383.774)">
          <path
             d="m -50.197833,15.806704 h 4.496821 c 0.709945,0 1.284805,-0.57486 1.284805,-1.283305 v -2.222894 c 0,-0.709945 -0.57486,-1.283305 -1.284805,-1.283305 h -4.570367 c -1.061165,0 -1.921205,-0.857037 -1.927209,-1.9182027 l -0.08555,-17.0521951 c 0,-1.2893086 0.148593,-2.3369652 0.444278,-3.1399692 0.297187,-0.804505 0.771484,-1.359853 1.427396,-1.664544 0.655911,-0.307693 1.395875,-0.460789 2.221393,-0.460789 0.888557,0 1.669047,0.07955 2.345971,0.237149 0.322703,0.07655 0.660414,0.177111 1.011635,0.301689 0.675423,0.244653 1.421391,-0.106567 1.655538,-0.786493 l 0.544842,-1.584995 c 0.220638,-0.642402 -0.09906,-1.338839 -0.724955,-1.606007 -0.679926,-0.289681 -1.380866,-0.534335 -2.105821,-0.732459 -1.121203,-0.306192 -2.442031,-0.460789 -3.963986,-0.460789 -1.439403,0 -2.691188,0.174109 -3.759858,0.523828 -1.06867,0.348219 -1.967734,0.935087 -2.695691,1.760605 -0.729457,0.824016 -1.2758,1.93021 -1.634525,3.315579 -0.358725,1.383868 -0.538838,3.1129525 -0.538838,5.1857525 l 0.08405,16.1456265 c 0.006,1.065668 -0.858539,1.936214 -1.925708,1.936214 h -2.014263 c -0.708445,0 -1.283305,0.57336 -1.283305,1.283305 v 2.222894 c 0,0.708445 0.57486,1.283305 1.283305,1.283305 h 2.087809 c 1.064168,0 1.925708,0.861541 1.925708,1.925708 v 5.127216 c 0,0.496811 0.288181,0.950096 0.735461,1.161728 l 3.20451,1.512949 c 0.854036,0.403754 1.83415,-0.217636 1.83415,-1.160227 v -6.641666 c 0,-1.064167 0.863042,-1.925708 1.927209,-1.925708"
             style="fill:#000100;fill-opacity:1;fill-rule:nonzero;stroke:none;stroke-width:1.50094"
             id="path250" />
        </g>
        <g
           id="g252"
           transform="translate(878.2344,379.4098)">
          <path
             d="m -39.608082,13.620496 c -0.412759,0.622891 -0.947094,1.13171 -1.601505,1.523455 -0.657412,0.390245 -1.385369,0.675424 -2.188372,0.855537 -0.806006,0.178612 -1.587996,0.270169 -2.348974,0.270169 -0.84503,0 -1.622517,-0.09606 -2.332462,-0.286679 -0.706944,-0.19062 -1.316326,-0.463791 -1.822143,-0.824017 -0.507318,-0.360226 -0.905068,-0.798501 -1.190247,-1.316326 -0.285179,-0.517825 -0.429269,-1.094186 -0.429269,-1.729084 0,-1.098689 0.333209,-1.972237 0.999627,-2.6161411 0.666418,-0.6469057 1.781617,-1.2427794 3.347099,-1.792124 l 6.31296,-2.2213932 c 2.707698,-0.9095705 4.682937,-2.1478471 5.93172,-3.711828 1.247282,-1.56548189 1.871674,-3.4371558 1.871674,-5.6150217 0,-1.4574141 -0.291183,-2.7962538 -0.872047,-4.0135173 -0.580864,-1.2157625 -1.406382,-2.2514117 -2.473551,-3.1069487 -1.068671,-0.857037 -2.354977,-1.523455 -3.855919,-1.999254 -1.502442,-0.475798 -3.171489,-0.714448 -5.010142,-0.714448 -2.560606,0 -4.643913,0.412759 -6.251421,1.238277 -1.606007,0.825517 -2.842783,1.9137 -3.710327,3.2660481 h -2.014263 c -0.709946,0 -1.284806,0.5763615 -1.284806,1.2863068 v 2.8863103 c 0,0.7084443 0.57486,1.2848058 1.284806,1.2848058 h 4.118583 c 0.616887,0 1.140715,-0.4427777 1.26079,-1.0476571 0.09456,-0.4742975 0.256661,-0.9035667 0.489307,-1.2848058 0.390245,-0.6439039 0.909571,-1.1677324 1.553475,-1.5684838 0.645404,-0.4037532 1.374862,-0.6979377 2.188372,-0.8885573 0.815011,-0.1906195 1.645032,-0.2866798 2.491563,-0.2866798 0.824017,0 1.618015,0.1005631 2.377491,0.3031902 0.762478,0.1981243 1.4349,0.4953107 2.015764,0.8855554 0.580865,0.3917457 1.041654,0.8630413 1.379365,1.4138868 0.339213,0.5493445 0.507319,1.1722352 0.507319,1.8701729 0,1.0581637 -0.342215,1.9572276 -1.029646,2.6971917 -0.687431,0.73996411 -1.856665,1.40488114 -3.504698,1.99775298 L -49.6809,2.7236615 c -2.559105,0.9095705 -4.456295,2.0667963 -5.693071,3.4746793 -1.236775,1.4048811 -1.855163,3.1654854 -1.855163,5.2803122 0,1.395875 0.258162,2.685184 0.775987,3.870927 0.517824,1.182742 1.269796,2.204883 2.251412,3.06042 0.984617,0.857037 2.183869,1.527958 3.602259,2.014263 1.415388,0.486305 3.033403,0.730959 4.852543,0.730959 2.348974,0 4.313706,-0.328707 5.900201,-0.984618 1.586495,-0.65441 3.01389,-1.775614 4.282186,-3.362109 h 1.793625 c 0.708444,0 1.283305,-0.57486 1.283305,-1.283304 v -2.887812 c 0,-0.709945 -0.574861,-1.284806 -1.283305,-1.284806 h -4.06605 c -0.610884,0 -1.127207,0.430771 -1.257789,1.028145 -0.100563,0.457787 -0.271671,0.872047 -0.513322,1.239778"
             style="fill:#000100;fill-opacity:1;fill-rule:nonzero;stroke:none;stroke-width:1.50094"
             id="path254" />
        </g>
        <g
           id="g256"
           transform="translate(908.001,376.2926)">
          <path
             d="m -24.696761,12.058961 h 9.439421 c 1.325331,0 2.255915,1.30732 1.819141,2.559105 l -4.759485,13.675077 c -0.601878,1.730586 -3.049913,1.724582 -3.642785,-0.0075 l -4.679935,-13.676578 c -0.427769,-1.250284 0.501314,-2.5501 1.823643,-2.5501 M -9.6122998,-4.1196857 v 0 c 1.3268322,0 2.2559149,1.3088209 1.819141,2.562107 l -2.4630452,7.0589273 c -0.270169,0.7729848 -0.999627,1.2908095 -1.819141,1.2908095 H -27.82022 c -0.825517,0 -1.559478,-0.5238285 -1.825144,-1.305819 l -2.400006,-7.0589273 c -0.426267,-1.2487832 0.502816,-2.5470975 1.823644,-2.5470975 h 0.331708 c 1.064168,0 1.925708,-0.8630413 1.925708,-1.9272087 v -2.2454083 c 0,-0.7084443 -0.574861,-1.2833049 -1.283305,-1.2833049 h -13.038678 c -0.708444,0 -1.283305,0.5748606 -1.283305,1.2833049 v 2.8878112 c 0,0.7099453 0.574861,1.2848058 1.283305,1.2848058 h 1.538465 c 0.818013,0 1.54597,0.5163239 1.81764,1.2878077 l 14.218418,40.487894 c 0.180113,0.513322 0.666418,0.858538 1.21126,0.858538 h 7.536226 c 0.546343,0 1.032648,-0.345216 1.212761,-0.858538 L -0.56312422,-2.830377 C -0.29295477,-3.6033618 0.43650274,-4.1196857 1.2545158,-4.1196857 H 3.424877 c 0.7099453,0 1.2863068,-0.5748605 1.2863068,-1.2848058 v -2.8878112 c 0,-0.7084443 -0.5763615,-1.2833049 -1.2863068,-1.2833049 H -9.6122998 c -0.7099452,0 -1.2848062,0.5748606 -1.2848062,1.2833049 v 2.8878112 c 0,0.7099453 0.574861,1.2848058 1.2848062,1.2848058"
             style="fill:#e7311b;fill-opacity:1;fill-rule:nonzero;stroke:none;stroke-width:1.50094"
             id="path258" />
        </g>
        <g
           id="g260"
           transform="translate(953.4297,362.859)">
          <path
             d="M -1.939645,5.3295153 V 13.545668 C -2.7306411,11.899136 -3.7212624,10.467238 -4.9085071,9.2469723 -6.0957517,8.0297089 -7.4180811,7.0240781 -8.8769961,6.233082 -10.335911,5.440585 -11.892387,4.8477132 -13.547926,4.4514646 -15.204965,4.0552161 -16.88752,3.8585928 -18.595592,3.8585928 c -3.081432,0 -5.925716,0.5148229 -8.529849,1.5459696 -2.605635,1.0311467 -4.963614,2.6716757 -7.07844,4.9215866 -2.113325,2.249911 -3.728338,4.915583 -4.843538,7.998517 -1.113698,3.084434 -1.670547,6.302453 -1.670547,9.657057 0,3.374116 0.556849,6.562115 1.670547,9.560996 1.1152,3.000382 2.67768,5.615022 4.68744,7.842419 2.009761,2.230399 4.406764,3.980496 7.186508,5.251794 2.781244,1.269796 5.798136,1.904694 9.047674,1.904694 2.998881,0 5.577498,-0.426267 7.73285,-1.280303 2.1568529,-0.855536 4.0000089,-1.889685 5.5324701,-3.10995 1.5294592,-1.217264 2.7542274,-2.380493 3.6713026,-3.483685 h 1.74559479 c 0.70994531,0 1.28630681,-0.574861 1.28630681,-1.283305 v -2.994378 c 0,-0.708444 -0.5763615,-1.284806 -1.28630681,-1.284806 H -2.7816731 c -1.2232673,0 -2.3879978,0.564354 -3.1204572,1.54597 -1.2367757,1.65854 -2.7452217,3.016892 -4.5208357,4.079558 -2.303945,1.374863 -4.87956,2.03978 -7.735852,1.999254 -2.394001,0 -4.591379,-0.51032 -6.592134,-1.532461 -1.999254,-1.019139 -3.713329,-2.394001 -5.140724,-4.123086 -1.425895,-1.729084 -2.53509,-3.717832 -3.327587,-5.967743 -0.790996,-2.249911 -1.187245,-4.625901 -1.187245,-7.124968 0,-2.770738 0.436774,-5.344853 1.311823,-7.719342 0.875049,-2.374489 1.988747,-4.301698 3.344097,-5.780125 1.353849,-1.479928 3.025898,-2.703196 5.014645,-3.672804 1.990249,-0.9681069 4.19213,-1.45141 6.610146,-1.45141 4.000009,0 7.279566,0.97261 9.8416728,2.920832 2.2934384,1.742593 3.968489,4.355732 5.0266526,7.840918 0.1921205,0.628894 -0.2731713,1.268295 -0.9305836,1.268295 H -14.873257 c -0.709945,0 -1.284806,0.574861 -1.284806,1.284806 v 2.805259 c 0,0.708445 0.574861,1.284806 1.284806,1.284806 H 2.5886951 C 3.2971395,26.762958 3.872,26.186597 3.872,25.478152 V 5.3295153 C 3.872,4.6195701 3.2971395,4.0462105 2.5886951,4.0462105 h -3.24503524 c -0.70844436,0 -1.28330486,0.5733596 -1.28330486,1.2833048"
             style="fill:#e7311b;fill-opacity:1;fill-rule:nonzero;stroke:none;stroke-width:1.50094"
             id="path262" />
        </g>
      </g>
    </g>
  </g>
</svg>
