<?xml version="1.0" encoding="UTF-8" standalone="no"?>
<!-- Created with Inkscape (http://www.inkscape.org/) -->

<svg
   version="1.1"
   id="svg2"
   width="1587.4"
   height="1122.52"
   viewBox="0 0 1587.4 1122.52"
   sodipodi:docname="Neulink logo.ai"
   inkscape:version="1.2.2 (b0a8486541, 2022-12-01)"
   xmlns:inkscape="http://www.inkscape.org/namespaces/inkscape"
   xmlns:sodipodi="http://sodipodi.sourceforge.net/DTD/sodipodi-0.dtd"
   xmlns="http://www.w3.org/2000/svg"
   xmlns:svg="http://www.w3.org/2000/svg">
  <sodipodi:namedview
     id="namedview7266"
     pagecolor="#ffffff"
     bordercolor="#000000"
     borderopacity="0.25"
     inkscape:showpageshadow="2"
     inkscape:pageopacity="0.0"
     inkscape:pagecheckerboard="0"
     inkscape:deskcolor="#d1d1d1"
     showgrid="false"
     inkscape:zoom="0.45745287"
     inkscape:cx="200.02061"
     inkscape:cy="828.50066"
     inkscape:window-width="3840"
     inkscape:window-height="2056"
     inkscape:window-x="0"
     inkscape:window-y="0"
     inkscape:window-maximized="1"
     inkscape:current-layer="svg2" />
  <defs
     id="defs6">
    <clipPath
       clipPathUnits="userSpaceOnUse"
       id="clipPath18">
      <path
         d="M 0,841.89 H 1190.551 V 0 H 0 Z"
         id="path16" />
    </clipPath>
    <clipPath
       clipPathUnits="userSpaceOnUse"
       id="clipPath130">
      <path
         d="M 0,841.89 H 1190.551 V 0 H 0 Z"
         id="path128" />
    </clipPath>
  </defs>
  <g
     id="g10"
     transform="matrix(1.3333333,0,0,-1.3333333,0,1122.52)" />
  <g
     id="g122"
     transform="matrix(1.3333333,0,0,-1.3333333,-28.619461,1096.5515)">
    <g
       id="g124">
      <g
         id="g126"
         clip-path="url(#clipPath130)">
        <g
           id="g132"
           transform="translate(643.3623,447.3776)">
          <path
             d="m 0,0 c 0.103,-13.954 -10.97,-25.268 -24.807,-25.345 -14.089,-0.079 -25.381,11.07 -25.414,25.091 v 33.233 c 0,1.013 -0.822,1.835 -1.835,1.835 h -6.982 c -1.013,0 -1.834,-0.822 -1.834,-1.835 V -0.305 c 0,-19.559 16.169,-35.687 35.81,-35.718 19.585,-0.033 35.694,16.094 35.724,35.764 v 33.238 c 0,1.013 -0.822,1.835 -1.835,1.835 H 1.835 C 0.821,34.814 0,33.992 0,32.979 Z"
             style="fill:#d51b1a;fill-opacity:1;fill-rule:nonzero;stroke:none"
             id="path134" />
        </g>
        <g
           id="g136"
           transform="translate(763.5488,482.192)">
          <path
             d="m 0,0 h -22.446 c -1.014,0 -1.835,-0.822 -1.835,-1.835 v -6.977 c 0,-1.012 0.821,-1.834 1.835,-1.834 h 16.791 c 3.124,0 5.655,-2.532 5.655,-5.655 v -37.573 c 0,-3.124 -2.531,-5.655 -5.655,-5.655 h -16.791 c -1.014,0 -1.835,-0.822 -1.835,-1.835 v -6.976 c 0,-1.014 0.821,-1.835 1.835,-1.835 h 55.539 c 1.013,0 1.835,0.821 1.835,1.835 v 6.976 c 0,1.013 -0.822,1.835 -1.835,1.835 H 16.301 c -3.123,0 -5.655,2.531 -5.655,5.655 v 37.573 c 0,3.123 2.532,5.655 5.655,5.655 h 16.792 c 1.013,0 1.835,0.822 1.835,1.834 v 6.977 C 34.928,-0.822 34.106,0 33.093,0 H 10.646 Z"
             style="fill:#231916;fill-opacity:1;fill-rule:nonzero;stroke:none"
             id="path138" />
        </g>
        <g
           id="g140"
           transform="translate(499.3535,438.3209)">
          <path
             d="m 0,0 c 0,-14.534 11.783,-26.317 26.317,-26.317 h 41.967 c 1.014,0 1.835,0.821 1.835,1.835 v 6.975 c 0,1.014 -0.821,1.835 -1.835,1.835 h -40.74 c -9.333,0 -16.898,7.567 -16.898,16.9 v 15.168 c 0,9.332 7.565,16.898 16.898,16.898 h 40.74 c 1.014,0 1.835,0.821 1.835,1.835 v 6.975 c 0,1.013 -0.821,1.835 -1.835,1.835 H 26.317 C 11.783,43.939 0,32.156 0,17.622 Z"
             style="fill:#d51b1a;fill-opacity:1;fill-rule:nonzero;stroke:none"
             id="path142" />
        </g>
        <g
           id="g144"
           transform="translate(520.9131,441.7408)">
          <path
             d="m 0,0 h 46.725 c 1.013,0 1.835,0.821 1.835,1.835 v 6.976 c 0,1.013 -0.822,1.835 -1.835,1.835 H 0 c -1.014,0 -1.835,-0.822 -1.835,-1.835 V 1.835 C -1.835,0.821 -1.014,0 0,0"
             style="fill:#d51b1a;fill-opacity:1;fill-rule:nonzero;stroke:none"
             id="path146" />
        </g>
        <g
           id="g148"
           transform="translate(466.0083,440.8951)">
          <path
             d="m 0,0 -37.002,38.977 c -1.407,1.481 -3.359,2.32 -5.402,2.32 -4.113,0 -7.447,-3.335 -7.447,-7.447 v -60.838 c 0,-1.013 0.822,-1.835 1.835,-1.835 h 6.976 c 1.014,0 1.835,0.822 1.835,1.835 V 8.609 c 0,5.071 6.191,7.541 9.683,3.864 L 7.48,-26.503 c 1.406,-1.481 3.359,-2.32 5.401,-2.32 4.113,0 7.447,3.335 7.447,7.447 v 60.838 c 0,1.013 -0.821,1.835 -1.835,1.835 h -6.975 c -1.014,0 -1.835,-0.822 -1.835,-1.835 V 3.864 C 9.683,-1.206 3.491,-3.677 0,0"
             style="fill:#d51b1a;fill-opacity:1;fill-rule:nonzero;stroke:none"
             id="path150" />
        </g>
        <g
           id="g152"
           transform="translate(861.3447,440.8951)">
          <path
             d="m 0,0 -37.003,38.977 c -1.406,1.481 -3.359,2.32 -5.401,2.32 -4.114,0 -7.448,-3.335 -7.448,-7.447 v -60.838 c 0,-1.013 0.822,-1.835 1.835,-1.835 h 6.977 c 1.013,0 1.835,0.822 1.835,1.835 V 8.609 c 0,5.071 6.19,7.541 9.682,3.865 L 7.479,-26.503 c 1.407,-1.481 3.359,-2.32 5.402,-2.32 4.112,0 7.446,3.335 7.446,7.447 v 60.838 c 0,1.013 -0.821,1.835 -1.835,1.835 h -6.975 c -1.014,0 -1.835,-0.822 -1.835,-1.835 V 3.864 C 9.682,-1.206 3.49,-3.677 0,0"
             style="fill:#231916;fill-opacity:1;fill-rule:nonzero;stroke:none"
             id="path154" />
        </g>
        <g
           id="g156"
           transform="translate(710.6572,422.6627)">
          <path
             d="m 0,0 h -15.211 c -3.123,0 -5.654,2.531 -5.654,5.655 v 37.574 c 0,3.123 2.531,5.654 5.654,5.654 h 4.615 c 1.014,0 1.835,0.822 1.835,1.835 v 6.976 c 0,1.013 -0.821,1.835 -1.835,1.835 h -31.185 c -1.014,0 -1.835,-0.822 -1.835,-1.835 v -6.976 c 0,-1.013 0.821,-1.835 1.835,-1.835 h 4.615 c 3.123,0 5.654,-2.531 5.654,-5.654 V 5.655 C -31.512,2.531 -34.043,0 -37.166,0 h -4.615 c -1.014,0 -1.835,-0.821 -1.835,-1.835 v -6.976 c 0,-1.013 0.821,-1.835 1.835,-1.835 h 55.539 c 1.013,0 1.835,0.822 1.835,1.835 V 4.946 c 0,1.014 -0.822,1.835 -1.835,1.835 H 6.782 C 5.769,6.781 4.947,5.96 4.947,4.946 4.947,2.215 2.732,0 0,0"
             style="fill:#231916;fill-opacity:1;fill-rule:nonzero;stroke:none"
             id="path158" />
        </g>
        <g
           id="g160"
           transform="translate(961.5117,482.1237)">
          <path
             d="m 0,0 h -9.575 c -0.488,0 -0.955,-0.194 -1.3,-0.54 l -27.104,-27.198 c -1.061,-1.065 -2.502,-1.663 -4.005,-1.663 h -7.456 c -3.123,0 -5.656,2.532 -5.656,5.655 v 21.911 c 0,1.013 -0.821,1.835 -1.835,1.835 h -6.975 c -1.014,0 -1.835,-0.822 -1.835,-1.835 v -66.45 c 0,-1.013 0.821,-1.835 1.835,-1.835 h 6.975 c 1.014,0 1.835,0.822 1.835,1.835 v 22.583 c 0,3.123 2.533,5.655 5.656,5.655 h 7.456 c 1.503,0 2.944,-0.599 4.005,-1.663 l 27.104,-27.198 c 0.345,-0.346 0.812,-0.54 1.3,-0.54 H 0 c 1.633,0 2.452,1.973 1.3,3.131 l -27.507,27.601 c -2.199,2.207 -2.199,5.777 0,7.984 L 1.3,-3.131 C 2.452,-1.974 1.633,0 0,0"
             style="fill:#231916;fill-opacity:1;fill-rule:nonzero;stroke:none"
             id="path162" />
        </g>
        <g
           id="g164"
           transform="translate(299.894,389.1207)">
          <path
             d="m 0,0 c 0,-2.208 -0.842,-4.417 -2.527,-6.102 l -9.89,-9.888 c 0.155,-0.137 0.309,-0.281 0.459,-0.43 3.369,-3.365 3.369,-8.833 0,-12.199 -6.721,-6.723 -15.657,-10.423 -25.165,-10.423 -9.507,0 -18.443,3.7 -25.164,10.423 -11.94,11.935 -13.833,30.794 -4.496,44.842 2.123,3.195 5.518,5.338 9.313,5.877 3.793,0.539 7.643,-0.57 10.569,-3.039 5.042,-4.268 6.234,-11.703 2.767,-17.305 -2.245,-3.624 -1.601,-8.385 1.535,-11.302 3.49,-3.251 9.213,-3.012 12.757,0.531 l 15.116,15.116 c 3.37,3.368 8.831,3.368 12.201,-0.002 C -0.842,4.414 0,2.207 0,0"
             style="fill:#fad4b5;fill-opacity:1;fill-rule:nonzero;stroke:none"
             id="path166" />
        </g>
        <g
           id="g168"
           transform="translate(329.9727,422.7799)">
          <path
             d="m 0,0 c 2.207,0 4.417,-0.842 6.102,-2.527 l 9.888,-9.89 c 0.137,0.155 0.28,0.31 0.429,0.459 3.366,3.369 8.833,3.369 12.199,0 6.723,-6.721 10.424,-15.657 10.424,-25.164 0,-9.508 -3.701,-18.443 -10.424,-25.164 -11.935,-11.941 -30.794,-13.834 -44.842,-4.497 -3.194,2.123 -5.337,5.518 -5.876,9.313 -0.539,3.793 0.569,7.643 3.039,10.569 4.268,5.042 11.702,6.234 17.305,2.767 3.624,-2.245 8.384,-1.6 11.301,1.535 3.252,3.491 3.012,9.213 -0.531,12.757 l -15.116,15.116 c -3.367,3.37 -3.367,8.831 0.002,12.202 C -4.415,-0.842 -2.207,0 0,0"
             style="fill:#d42f19;fill-opacity:1;fill-rule:nonzero;stroke:none"
             id="path170" />
        </g>
        <g
           id="g172"
           transform="translate(266.3232,419.0455)">
          <path
             d="m 0,0 c -2.207,0 -4.417,0.843 -6.102,2.527 l -9.888,9.891 c -0.136,-0.155 -0.28,-0.31 -0.429,-0.459 -3.366,-3.37 -8.833,-3.37 -12.199,0 -6.723,6.721 -10.424,15.657 -10.424,25.164 0,9.507 3.701,18.443 10.424,25.164 11.935,11.94 30.794,13.833 44.842,4.497 3.195,-2.123 5.337,-5.518 5.876,-9.313 0.539,-3.793 -0.569,-7.644 -3.039,-10.569 -4.268,-5.043 -11.702,-6.234 -17.304,-2.767 -3.625,2.245 -8.385,1.6 -11.302,-1.536 -3.252,-3.49 -3.012,-9.212 0.531,-12.757 L 6.102,14.727 C 9.469,11.356 9.469,5.896 6.1,2.525 4.415,0.843 2.208,0 0,0"
             style="fill:#d42f19;fill-opacity:1;fill-rule:nonzero;stroke:none"
             id="path174" />
        </g>
        <g
           id="g176"
           transform="translate(296.2407,452.7692)">
          <path
             d="m 0,0 c 0,2.208 0.842,4.417 2.527,6.102 l 9.891,9.888 c -0.156,0.137 -0.31,0.281 -0.46,0.43 -3.369,3.365 -3.369,8.833 0,12.198 6.721,6.724 15.658,10.424 25.165,10.424 9.507,0 18.443,-3.7 25.164,-10.424 11.94,-11.934 13.833,-30.793 4.497,-44.842 -2.123,-3.194 -5.518,-5.337 -9.314,-5.876 -3.793,-0.539 -7.643,0.57 -10.569,3.039 -5.042,4.268 -6.234,11.703 -2.767,17.305 2.245,3.624 1.601,8.384 -1.535,11.301 -3.49,3.252 -9.213,3.013 -12.757,-0.53 L 14.726,-6.102 C 11.356,-9.469 5.895,-9.469 2.525,-6.099 0.842,-4.414 0,-2.207 0,0"
             style="fill:#fad4b5;fill-opacity:1;fill-rule:nonzero;stroke:none"
             id="path178" />
        </g>
        <g
           id="g180"
           transform="translate(421.5117,376.1764)">
          <path
             d="m 0,0 h 6.289 c 0.883,0 1.503,0.871 1.212,1.705 l -1.9,5.461 C 4.783,9.516 1.457,9.507 0.652,7.153 L -1.215,1.699 C -1.5,0.866 -0.88,0 0,0 m 10.05,-10.778 v 0 c 0.884,0 1.503,0.871 1.212,1.706 l -1.641,4.703 c -0.18,0.515 -0.666,0.86 -1.212,0.86 H -2.082 c -0.549,0 -1.038,-0.349 -1.215,-0.87 l -1.599,-4.703 c -0.284,-0.832 0.335,-1.696 1.215,-1.696 h 0.649 c 0.472,0 0.856,-0.384 0.856,-0.857 v -1.924 c 0,-0.472 -0.384,-0.855 -0.856,-0.855 h -8.687 c -0.472,0 -0.856,0.383 -0.856,0.855 v 1.924 c 0,0.473 0.384,0.857 0.856,0.857 h 1.024 c 0.546,0 1.031,0.343 1.212,0.857 l 9.473,26.975 c 0.12,0.342 0.444,0.572 0.807,0.572 h 5.021 c 0.364,0 0.688,-0.23 0.808,-0.572 L 16.079,-9.92 c 0.18,-0.515 0.666,-0.858 1.211,-0.858 h 1.446 c 0.473,0 0.856,-0.384 0.856,-0.857 v -1.924 c 0,-0.472 -0.383,-0.855 -0.856,-0.855 H 10.05 c -0.473,0 -0.856,0.383 -0.856,0.855 v 1.924 c 0,0.473 0.383,0.857 0.856,0.857"
             style="fill:#000100;fill-opacity:1;fill-rule:nonzero;stroke:none"
             id="path182" />
        </g>
        <g
           id="g184"
           transform="translate(454.6401,364.6998)">
          <path
             d="m 0,0 c 1.169,0 2.148,0.173 2.938,0.519 0.375,0.163 0.734,0.366 1.08,0.607 0.693,0.484 1.097,1.286 1.097,2.132 v 9.647 c 0,1.029 -0.599,1.967 -1.537,2.386 -0.286,0.128 -0.584,0.237 -0.894,0.328 -0.916,0.268 -1.852,0.402 -2.81,0.402 -0.931,0 -1.804,-0.173 -2.622,-0.518 -0.816,-0.346 -1.532,-0.85 -2.145,-1.512 -0.612,-0.662 -1.095,-1.472 -1.447,-2.43 -0.352,-0.958 -0.529,-2.057 -0.529,-3.297 0,-1.353 0.169,-2.543 0.508,-3.572 0.338,-1.029 0.81,-1.891 1.416,-2.588 C -4.34,1.406 -3.614,0.881 -2.769,0.528 -1.923,0.177 -1,0 0,0 m 2.991,29.948 h 3.437 c 1.446,0 2.618,-1.172 2.618,-2.618 V 0.698 h 2.356 c 0.473,0 0.856,-0.384 0.856,-0.856 v -1.924 c 0,-0.473 -0.383,-0.856 -0.856,-0.856 H 6.911 c -0.992,0 -1.796,0.805 -1.796,1.797 -0.705,-0.718 -1.522,-1.279 -2.452,-1.68 -0.93,-0.402 -1.987,-0.603 -3.17,-0.603 -1.479,0 -2.857,0.258 -4.132,0.772 -1.275,0.514 -2.381,1.268 -3.318,2.261 -0.937,0.994 -1.669,2.212 -2.198,3.657 -0.529,1.444 -0.793,3.096 -0.793,4.956 0,1.69 0.254,3.229 0.761,4.618 0.507,1.388 1.226,2.571 2.156,3.551 0.93,0.978 2.05,1.739 3.361,2.282 1.31,0.542 2.768,0.813 4.374,0.813 1.057,0 2.022,-0.116 2.896,-0.348 0.873,-0.233 1.712,-0.638 2.515,-1.215 v 6.265 c 0,1.174 -0.951,2.125 -2.124,2.125 -0.473,0 -0.856,0.383 -0.856,0.856 v 1.923 c 0,0.472 0.383,0.856 0.856,0.856"
             style="fill:#000100;fill-opacity:1;fill-rule:nonzero;stroke:none"
             id="path186" />
        </g>
        <g
           id="g188"
           transform="translate(470.2583,383.6578)">
          <path
             d="M 0,0 H 5.854 C 6.327,0 6.71,-0.383 6.71,-0.855 v -1.924 c 0,-0.473 -0.383,-0.856 -0.856,-0.856 H 5.14 c -0.234,0 -0.397,-0.231 -0.318,-0.452 l 2.756,-7.684 c 0.832,-2.322 4.119,-2.31 4.934,0.018 l 2.685,7.669 c 0.077,0.22 -0.086,0.449 -0.318,0.449 -0.473,0 -0.856,0.383 -0.856,0.856 v 1.924 C 14.023,-0.383 14.406,0 14.879,0 H 20.1 c 0.472,0 0.855,-0.383 0.855,-0.855 v -1.924 c 0,-0.473 -0.383,-0.856 -0.855,-0.856 h -0.794 c -0.14,0 -0.265,-0.086 -0.315,-0.217 l -6.87,-17.834 c -0.127,-0.33 -0.445,-0.547 -0.799,-0.547 H 8.609 c -0.355,0 -0.672,0.217 -0.799,0.548 L 0.96,-3.852 c -0.05,0.13 -0.175,0.217 -0.314,0.217 H 0 c -0.473,0 -0.856,0.383 -0.856,0.856 v 1.924 C -0.856,-0.383 -0.473,0 0,0"
             style="fill:#000100;fill-opacity:1;fill-rule:nonzero;stroke:none"
             id="path190" />
        </g>
        <g
           id="g192"
           transform="translate(502.3193,364.4469)">
          <path
             d="m 0,0 c 0.521,0 1.042,0.062 1.564,0.189 0.521,0.127 1.015,0.3 1.479,0.519 0.465,0.218 0.895,0.472 1.29,0.761 L 4.344,1.478 C 4.969,1.937 5.327,2.675 5.331,3.45 L 5.336,4.785 C 5.342,6.179 4.214,7.312 2.82,7.312 H 0.782 C 0.021,7.312 -0.673,7.228 -1.3,7.059 -1.927,6.89 -2.47,6.643 -2.927,6.318 -3.385,5.994 -3.741,5.593 -3.995,5.114 -4.248,4.635 -4.375,4.086 -4.375,3.466 -4.375,2.888 -4.27,2.384 -4.058,1.954 -3.847,1.524 -3.547,1.165 -3.16,0.877 -2.772,0.588 -2.311,0.369 -1.775,0.222 -1.24,0.073 -0.648,0 0,0 M 5.326,-0.655 C 4.495,-1.431 3.575,-2.064 2.568,-2.558 1.56,-3.051 0.416,-3.298 -0.867,-3.298 c -1.07,0 -2.053,0.17 -2.948,0.508 -0.895,0.338 -1.666,0.8 -2.314,1.384 -0.648,0.585 -1.152,1.264 -1.511,2.04 -0.36,0.774 -0.539,1.598 -0.539,2.472 0,0.93 0.137,1.754 0.412,2.473 0.275,0.719 0.641,1.342 1.099,1.87 0.458,0.529 0.993,0.973 1.606,1.332 0.613,0.36 1.254,0.648 1.923,0.866 0.669,0.219 1.353,0.374 2.051,0.465 0.697,0.092 1.363,0.138 1.997,0.138 1.014,0 1.866,-0.031 2.557,-0.096 0.058,-0.005 0.115,-0.01 0.172,-0.015 0.92,-0.092 1.719,0.624 1.73,1.549 0,0.774 -0.113,1.447 -0.338,2.017 -0.226,0.571 -0.543,1.043 -0.951,1.416 -0.409,0.374 -0.898,0.652 -1.469,0.835 -0.57,0.184 -1.208,0.275 -1.913,0.275 -0.662,0 -1.296,-0.045 -1.902,-0.137 -0.606,-0.092 -1.172,-0.212 -1.701,-0.36 -0.529,-0.148 -1.014,-0.317 -1.458,-0.507 -0.135,-0.057 -0.262,-0.116 -0.385,-0.175 -0.425,-0.207 -0.938,-0.022 -1.14,0.406 l -0.565,1.194 c -0.193,0.41 -0.033,0.895 0.361,1.117 0.323,0.182 0.664,0.357 1.021,0.523 0.619,0.288 1.271,0.535 1.955,0.739 0.683,0.204 1.38,0.366 2.092,0.487 0.711,0.119 1.412,0.179 2.103,0.179 1.268,0 2.409,-0.151 3.423,-0.454 1.015,-0.304 1.874,-0.771 2.579,-1.406 0.705,-0.634 1.247,-1.441 1.628,-2.42 0.38,-0.979 0.57,-2.152 0.57,-3.519 L 9.257,0.951 h 1.575 c 0.472,0 0.856,-0.384 0.856,-0.856 v -1.924 c 0,-0.473 -0.384,-0.856 -0.856,-0.856 H 5.326 Z"
             style="fill:#000100;fill-opacity:1;fill-rule:nonzero;stroke:none"
             id="path194" />
        </g>
        <g
           id="g196"
           transform="translate(534.8345,365.3981)">
          <path
             d="m 0,0 v 0 c 0.852,0 1.543,0.69 1.543,1.542 v 8.454 c 0,1.677 -0.426,2.948 -1.279,3.815 -0.852,0.867 -2.075,1.299 -3.667,1.299 -0.916,0 -1.838,-0.217 -2.768,-0.655 -0.49,-0.229 -0.966,-0.489 -1.429,-0.778 -0.759,-0.474 -1.213,-1.315 -1.213,-2.21 V 1.542 C -8.813,0.69 -8.123,0 -7.271,0 h 0.688 c 0.473,0 0.855,-0.384 0.855,-0.856 V -2.78 c 0,-0.473 -0.382,-0.856 -0.855,-0.856 h -8.518 c -0.472,0 -0.856,0.383 -0.856,0.856 v 1.924 c 0,0.472 0.384,0.856 0.856,0.856 h 0.645 c 0.852,0 1.543,0.69 1.543,1.542 v 10.895 c 0,1.209 -0.98,2.188 -2.188,2.188 -0.472,0 -0.856,0.383 -0.856,0.855 v 1.924 c 0,0.473 0.384,0.856 0.856,0.856 h 5.263 c 0.473,0 0.856,-0.383 0.856,-0.856 v -1.722 h 0.042 c 0.465,0.408 0.961,0.796 1.49,1.162 0.529,0.366 1.081,0.683 1.659,0.951 0.578,0.267 1.18,0.478 1.807,0.634 0.627,0.155 1.286,0.232 1.976,0.232 1.17,0 2.226,-0.162 3.171,-0.485 0.943,-0.325 1.746,-0.818 2.409,-1.48 0.662,-0.663 1.173,-1.511 1.532,-2.547 0.359,-1.036 0.539,-2.258 0.539,-3.667 V 1.542 C 5.643,0.69 6.334,0 7.186,0 H 7.831 C 8.303,0 8.687,-0.384 8.687,-0.856 V -2.78 c 0,-0.473 -0.384,-0.856 -0.856,-0.856 h -8.518 c -0.473,0 -0.856,0.383 -0.856,0.856 v 1.237 C -1.543,-0.691 -0.852,0 0,0"
             style="fill:#000100;fill-opacity:1;fill-rule:nonzero;stroke:none"
             id="path198" />
        </g>
        <g
           id="g200"
           transform="translate(565.4116,377.8248)">
          <path
             d="m 0,0 c -0.797,0 -1.568,0.341 -2.067,0.963 -0.465,0.579 -1,1.033 -1.606,1.361 -0.909,0.493 -1.962,0.74 -3.16,0.74 -0.916,0 -1.775,-0.19 -2.578,-0.57 -0.803,-0.381 -1.505,-0.924 -2.103,-1.628 -0.599,-0.704 -1.071,-1.56 -1.416,-2.567 -0.345,-1.008 -0.518,-2.132 -0.518,-3.371 0,-1.226 0.173,-2.332 0.518,-3.319 0.345,-0.986 0.821,-1.828 1.427,-2.525 0.605,-0.697 1.306,-1.233 2.103,-1.606 0.795,-0.374 1.651,-0.56 2.567,-0.56 1.353,0 2.529,0.327 3.53,0.982 0.803,0.527 1.476,1.251 2.016,2.173 0.228,0.391 0.715,0.543 1.12,0.343 l 1.723,-0.851 c 0.443,-0.217 0.61,-0.765 0.365,-1.194 -0.335,-0.584 -0.716,-1.125 -1.145,-1.623 -0.62,-0.718 -1.321,-1.331 -2.103,-1.838 -0.782,-0.508 -1.642,-0.898 -2.579,-1.174 -0.937,-0.274 -1.927,-0.412 -2.969,-0.412 -1.521,0 -2.927,0.286 -4.216,0.857 -1.289,0.57 -2.403,1.37 -3.34,2.398 -0.937,1.028 -1.666,2.254 -2.187,3.678 -0.522,1.423 -0.782,2.98 -0.782,4.671 0,1.69 0.275,3.247 0.824,4.671 0.55,1.422 1.303,2.644 2.262,3.667 0.958,1.021 2.078,1.82 3.36,2.398 1.282,0.577 2.656,0.866 4.121,0.866 1.381,0 2.687,-0.239 3.921,-0.718 C -1.767,5.366 -0.751,4.709 0.133,3.837 0.262,3.71 0.434,3.635 0.616,3.635 h 1.079 c 0.473,0 0.856,-0.383 0.856,-0.856 V 0.855 C 2.551,0.383 2.168,0 1.695,0 Z"
             style="fill:#000100;fill-opacity:1;fill-rule:nonzero;stroke:none"
             id="path202" />
        </g>
        <g
           id="g204"
           transform="translate(582.1118,380.9313)">
          <path
             d="m 0,0 c -0.916,0 -1.715,-0.13 -2.399,-0.391 -0.683,-0.26 -1.265,-0.633 -1.743,-1.12 -0.48,-0.486 -0.863,-1.082 -1.152,-1.786 -0.093,-0.225 -0.178,-0.461 -0.255,-0.704 -0.263,-0.823 0.363,-1.663 1.227,-1.663 h 8.264 c 0.813,0 1.426,0.748 1.259,1.544 C 5.148,-3.874 5.088,-3.635 5.02,-3.402 4.815,-2.712 4.502,-2.113 4.079,-1.606 3.656,-1.099 3.114,-0.704 2.452,-0.423 1.79,-0.141 0.972,0 0,0 m -4.78,-8.729 c -0.79,0 -1.385,-0.706 -1.268,-1.487 0.011,-0.072 0.023,-0.143 0.035,-0.214 0.092,-0.514 0.222,-1.004 0.391,-1.468 0.521,-1.41 1.356,-2.47 2.505,-3.181 1.148,-0.712 2.448,-1.067 3.899,-1.067 1.141,0 2.251,0.158 3.329,0.475 0.858,0.252 1.75,0.618 2.675,1.099 0.405,0.211 0.905,0.073 1.137,-0.321 l 0.75,-1.27 c 0.234,-0.397 0.115,-0.91 -0.275,-1.155 -1.209,-0.761 -2.423,-1.343 -3.643,-1.745 -1.451,-0.479 -2.959,-0.719 -4.523,-0.719 -1.479,0 -2.849,0.247 -4.11,0.74 -1.261,0.493 -2.346,1.226 -3.255,2.198 -0.909,0.972 -1.62,2.184 -2.135,3.635 -0.514,1.451 -0.771,3.142 -0.771,5.072 0,1.565 0.219,3.04 0.655,4.428 0.437,1.388 1.089,2.6 1.955,3.636 0.867,1.035 1.941,1.855 3.223,2.462 1.282,0.605 2.776,0.908 4.481,0.908 1.648,0 3.025,-0.25 4.132,-0.75 C 5.513,2.047 6.415,1.385 7.112,0.561 7.81,-0.264 8.338,-1.204 8.697,-2.261 9.056,-3.317 9.306,-4.396 9.447,-5.495 9.518,-6.03 9.563,-6.572 9.584,-7.122 9.594,-7.37 9.602,-7.615 9.607,-7.856 9.617,-8.336 9.229,-8.729 8.75,-8.729 Z"
             style="fill:#000100;fill-opacity:1;fill-rule:nonzero;stroke:none"
             id="path206" />
        </g>
        <g
           id="g208"
           transform="translate(608.2871,364.6998)">
          <path
             d="m 0,0 c 1.169,0 2.148,0.173 2.938,0.519 0.628,0.274 1.217,0.659 1.765,1.154 0.266,0.239 0.411,0.585 0.411,0.942 v 11.073 c 0,0.427 -0.211,0.829 -0.565,1.067 -0.564,0.377 -1.185,0.665 -1.865,0.864 -0.916,0.268 -1.853,0.402 -2.811,0.402 -0.93,0 -1.804,-0.173 -2.621,-0.518 -0.817,-0.346 -1.532,-0.85 -2.145,-1.512 -0.613,-0.662 -1.095,-1.472 -1.448,-2.43 -0.352,-0.958 -0.528,-2.057 -0.528,-3.297 0,-1.353 0.169,-2.543 0.507,-3.572 0.339,-1.029 0.81,-1.891 1.416,-2.588 C -4.34,1.406 -3.614,0.881 -2.769,0.528 -1.924,0.177 -1.001,0 0,0 m 2.99,29.948 h 5.199 c 0.473,0 0.856,-0.384 0.856,-0.856 V 1.981 c 0,-0.709 0.575,-1.283 1.284,-1.283 h 1.073 c 0.473,0 0.856,-0.384 0.856,-0.856 v -1.924 c 0,-0.473 -0.383,-0.856 -0.856,-0.856 H 5.97 c -0.473,0 -0.856,0.383 -0.856,0.856 v 0.941 C 4.409,-1.859 3.593,-2.42 2.663,-2.821 1.732,-3.223 0.676,-3.424 -0.508,-3.424 c -1.479,0 -2.856,0.258 -4.132,0.772 -1.275,0.514 -2.381,1.268 -3.317,2.261 -0.938,0.994 -1.67,2.212 -2.198,3.657 -0.529,1.444 -0.793,3.096 -0.793,4.956 0,1.69 0.254,3.229 0.76,4.618 0.508,1.388 1.227,2.571 2.157,3.551 0.929,0.978 2.05,1.739 3.36,2.282 1.311,0.542 2.769,0.813 4.375,0.813 1.057,0 2.022,-0.116 2.896,-0.348 0.873,-0.233 1.712,-0.638 2.514,-1.215 v 7.106 c 0,0.709 -0.574,1.284 -1.283,1.284 H 2.99 c -0.472,0 -0.855,0.383 -0.855,0.856 v 1.923 c 0,0.472 0.383,0.856 0.855,0.856"
             style="fill:#000100;fill-opacity:1;fill-rule:nonzero;stroke:none"
             id="path210" />
        </g>
        <g
           id="g212"
           transform="translate(637.3242,393.9186)">
          <path
             d="M 0,0 H 8.518 C 8.99,0 9.373,-0.383 9.373,-0.855 v -1.946 c 0,-0.472 -0.383,-0.855 -0.855,-0.855 H 7.613 C 6.904,-3.656 6.33,-4.23 6.33,-4.939 v -22.182 c 0,-0.709 0.574,-1.284 1.283,-1.284 h 0.905 c 0.472,0 0.855,-0.383 0.855,-0.856 v -1.924 c 0,-0.472 -0.383,-0.855 -0.855,-0.855 H 0 c -0.473,0 -0.855,0.383 -0.855,0.855 v 1.924 c 0,0.473 0.382,0.856 0.855,0.856 h 0.904 c 0.708,0 1.284,0.575 1.284,1.284 v 22.182 c 0,0.709 -0.576,1.283 -1.284,1.283 H 0 c -0.473,0 -0.855,0.383 -0.855,0.855 v 1.946 C -0.855,-0.383 -0.473,0 0,0"
             style="fill:#000100;fill-opacity:1;fill-rule:nonzero;stroke:none"
             id="path214" />
        </g>
        <g
           id="g216"
           transform="translate(667.5352,365.5133)">
          <path
             d="M 0,0 H 0.947 C 1.655,0 2.23,0.575 2.23,1.284 v 8.713 c 0,1.677 -0.426,2.948 -1.278,3.815 -0.853,0.867 -2.075,1.299 -3.667,1.299 -0.916,0 -1.839,-0.217 -2.768,-0.654 -0.734,-0.345 -1.435,-0.755 -2.107,-1.229 -0.338,-0.24 -0.536,-0.631 -0.536,-1.045 V 1.284 C -8.126,0.575 -7.551,0 -6.842,0 h 0.946 c 0.473,0 0.856,-0.383 0.856,-0.855 v -1.924 c 0,-0.473 -0.383,-0.856 -0.856,-0.856 h -8.517 c -0.473,0 -0.857,0.383 -0.857,0.856 v 1.924 c 0,0.472 0.384,0.855 0.857,0.855 h 0.904 c 0.708,0 1.283,0.575 1.283,1.284 v 12.058 c 0,0.709 -0.575,1.284 -1.283,1.284 h -0.904 c -0.473,0 -0.857,0.383 -0.857,0.855 v 1.924 c 0,0.473 0.384,0.856 0.857,0.856 h 5.263 c 0.472,0 0.855,-0.383 0.855,-0.856 v -1.722 h 0.043 c 0.465,0.408 0.961,0.796 1.489,1.162 0.529,0.366 1.081,0.683 1.659,0.951 0.579,0.267 1.18,0.478 1.808,0.634 0.626,0.155 1.285,0.232 1.976,0.232 1.169,0 2.226,-0.162 3.17,-0.485 0.944,-0.325 1.747,-0.818 2.41,-1.48 C 4.922,16.034 5.433,15.186 5.792,14.15 6.15,13.114 6.33,11.892 6.33,10.483 V 1.284 C 6.33,0.575 6.905,0 7.614,0 h 0.905 c 0.472,0 0.855,-0.383 0.855,-0.855 v -1.924 c 0,-0.473 -0.383,-0.856 -0.855,-0.856 H 0 c -0.472,0 -0.855,0.383 -0.855,0.856 v 1.924 C -0.855,-0.383 -0.472,0 0,0"
             style="fill:#000100;fill-opacity:1;fill-rule:nonzero;stroke:none"
             id="path218" />
        </g>
        <g
           id="g220"
           transform="translate(692.3477,364.816)">
          <path
             d="m 0,0 c 0.647,0 1.239,0.063 1.775,0.19 0.536,0.127 1.022,0.292 1.458,0.497 0.437,0.205 0.821,0.44 1.153,0.709 0.17,0.137 0.329,0.279 0.475,0.424 0.243,0.243 0.38,0.571 0.38,0.914 v 10.87 c 0,0.417 -0.202,0.809 -0.542,1.05 -0.585,0.415 -1.231,0.73 -1.941,0.944 -0.938,0.281 -1.899,0.423 -2.885,0.423 -0.93,0 -1.804,-0.173 -2.621,-0.518 -0.817,-0.346 -1.532,-0.85 -2.145,-1.512 -0.613,-0.662 -1.095,-1.472 -1.448,-2.43 C -6.693,10.603 -6.869,9.504 -6.869,8.264 -6.869,6.911 -6.7,5.721 -6.361,4.692 -6.023,3.663 -5.552,2.801 -4.945,2.104 -4.34,1.406 -3.614,0.881 -2.769,0.528 -1.924,0.176 -1.001,0 0,0 M 5.241,-1.015 C 4.522,-1.775 3.688,-2.367 2.736,-2.79 1.786,-3.212 0.704,-3.424 -0.508,-3.424 c -1.478,0 -2.856,0.258 -4.131,0.772 -1.275,0.514 -2.382,1.268 -3.318,2.261 -0.938,0.994 -1.67,2.212 -2.198,3.657 -0.529,1.444 -0.793,3.096 -0.793,4.956 0,1.69 0.254,3.23 0.76,4.618 0.508,1.388 1.227,2.571 2.157,3.551 0.929,0.978 2.05,1.739 3.36,2.282 1.311,0.542 2.769,0.813 4.375,0.813 1.099,0 2.089,-0.123 2.97,-0.37 0.88,-0.246 1.736,-0.673 2.567,-1.278 v 0.265 c 0,0.472 0.383,0.855 0.856,0.855 h 2.219 c 0.473,0 0.856,-0.383 0.856,-0.855 V -2.071 c 0,-3.466 -0.82,-6.086 -2.462,-7.863 -1.642,-1.774 -4.195,-2.662 -7.661,-2.662 -0.761,0 -1.557,0.056 -2.389,0.169 -0.831,0.113 -1.651,0.292 -2.462,0.539 -0.81,0.246 -1.599,0.56 -2.367,0.941 -0.517,0.256 -1.006,0.55 -1.469,0.883 -0.375,0.269 -0.473,0.786 -0.217,1.171 l 1.167,1.763 c 0.263,0.398 0.803,0.51 1.193,0.236 0.24,-0.168 0.494,-0.328 0.764,-0.482 0.542,-0.31 1.123,-0.574 1.743,-0.792 0.62,-0.219 1.26,-0.392 1.924,-0.518 0.662,-0.127 1.324,-0.19 1.986,-0.19 1.085,0 2.025,0.112 2.821,0.338 0.796,0.225 1.451,0.623 1.966,1.194 0.515,0.571 0.898,1.342 1.152,2.315 0.253,0.971 0.38,2.204 0.38,3.698 z"
             style="fill:#000100;fill-opacity:1;fill-rule:nonzero;stroke:none"
             id="path222" />
        </g>
        <g
           id="g224"
           transform="translate(722.2529,379.1451)">
          <path
             d="M 0,0 H -2.304 C -2.776,0 -3.16,0.384 -3.16,0.856 v 0.498 c -0.465,0 -0.941,-0.089 -1.427,-0.265 -0.485,-0.177 -0.94,-0.443 -1.362,-0.803 -0.423,-0.359 -0.793,-0.817 -1.111,-1.374 -0.298,-0.525 -0.519,-1.141 -0.662,-1.849 -0.016,-0.084 -0.024,-0.17 -0.024,-0.256 v -9.155 c 0,-0.709 0.574,-1.284 1.283,-1.284 h 1.581 c 0.473,0 0.856,-0.383 0.856,-0.855 v -1.924 c 0,-0.473 -0.383,-0.856 -0.856,-0.856 h -9.152 c -0.473,0 -0.856,0.383 -0.856,0.856 v 1.924 c 0,0.472 0.383,0.855 0.856,0.855 h 0.885 c 0.708,0 1.283,0.574 1.284,1.282 l 0.017,12.058 c 0.001,0.71 -0.574,1.286 -1.284,1.286 h -0.902 c -0.473,0 -0.856,0.383 -0.856,0.856 v 1.923 c 0,0.473 0.383,0.856 0.856,0.856 h 5.284 c 0.473,0 0.855,-0.383 0.855,-0.856 V 1.606 c 0.254,0.452 0.54,0.871 0.857,1.258 0.317,0.388 0.669,0.726 1.057,1.015 0.387,0.288 0.817,0.514 1.289,0.676 0.471,0.162 0.983,0.243 1.532,0.243 h 2.071 c 0.369,0 0.738,-0.005 1.108,-0.014 C 0.483,4.772 0.855,4.394 0.855,3.928 V 0.856 C 0.855,0.384 0.473,0 0,0"
             style="fill:#000100;fill-opacity:1;fill-rule:nonzero;stroke:none"
             id="path226" />
        </g>
        <g
           id="g228"
           transform="translate(737.9551,381.0475)">
          <path
             d="m 0,0 c -0.916,0 -1.715,-0.13 -2.398,-0.391 -0.684,-0.26 -1.265,-0.633 -1.745,-1.12 -0.478,-0.486 -0.863,-1.082 -1.151,-1.786 -0.093,-0.225 -0.178,-0.461 -0.255,-0.704 -0.263,-0.823 0.363,-1.663 1.227,-1.663 h 8.264 c 0.813,0 1.426,0.748 1.258,1.543 -0.052,0.247 -0.112,0.486 -0.18,0.719 -0.205,0.69 -0.518,1.289 -0.941,1.796 C 3.656,-1.099 3.114,-0.704 2.452,-0.423 1.789,-0.141 0.973,0 0,0 m -4.779,-8.729 c -0.791,0 -1.386,-0.706 -1.269,-1.488 0.011,-0.071 0.023,-0.142 0.035,-0.213 0.092,-0.514 0.222,-1.004 0.391,-1.468 0.521,-1.41 1.356,-2.47 2.505,-3.181 1.148,-0.712 2.448,-1.067 3.899,-1.067 1.142,0 2.251,0.158 3.329,0.475 0.858,0.252 1.75,0.618 2.675,1.099 0.405,0.211 0.904,0.073 1.137,-0.321 l 0.75,-1.27 c 0.234,-0.397 0.115,-0.91 -0.275,-1.155 -1.209,-0.761 -2.423,-1.343 -3.642,-1.745 -1.452,-0.479 -2.959,-0.718 -4.524,-0.718 -1.479,0 -2.849,0.246 -4.11,0.739 -1.261,0.493 -2.346,1.226 -3.255,2.198 -0.909,0.972 -1.62,2.184 -2.135,3.635 -0.514,1.451 -0.771,3.142 -0.771,5.072 0,1.565 0.219,3.04 0.655,4.428 0.437,1.388 1.089,2.6 1.955,3.635 0.867,1.036 1.941,1.856 3.223,2.463 1.282,0.605 2.776,0.908 4.481,0.908 1.649,0 3.026,-0.25 4.132,-0.75 1.106,-0.5 2.008,-1.162 2.705,-1.986 0.698,-0.825 1.226,-1.765 1.585,-2.823 0.36,-1.056 0.61,-2.134 0.75,-3.233 0.071,-0.535 0.116,-1.077 0.138,-1.627 0.02,-0.55 0.031,-1.085 0.031,-1.607 z"
             style="fill:#000100;fill-opacity:1;fill-rule:nonzero;stroke:none"
             id="path230" />
        </g>
        <g
           id="g232"
           transform="translate(764.1299,364.816)">
          <path
             d="m 0,0 c 1.17,0 2.148,0.173 2.938,0.518 0.628,0.275 1.217,0.66 1.766,1.155 0.266,0.239 0.411,0.585 0.411,0.942 v 11.073 c 0,0.428 -0.211,0.829 -0.565,1.066 -0.564,0.378 -1.186,0.666 -1.865,0.865 -0.916,0.268 -1.854,0.402 -2.812,0.402 -0.93,0 -1.804,-0.173 -2.62,-0.518 -0.817,-0.346 -1.532,-0.85 -2.146,-1.512 -0.612,-0.662 -1.095,-1.472 -1.447,-2.43 -0.352,-0.958 -0.528,-2.057 -0.528,-3.297 0,-1.353 0.169,-2.543 0.507,-3.572 0.338,-1.029 0.81,-1.891 1.416,-2.588 C -4.34,1.406 -3.613,0.881 -2.769,0.528 -1.923,0.176 -1,0 0,0 m 2.99,29.948 h 5.2 c 0.473,0 0.856,-0.384 0.856,-0.856 V 0.697 h 2.356 c 0.473,0 0.857,-0.383 0.857,-0.855 v -1.924 c 0,-0.473 -0.384,-0.856 -0.857,-0.856 H 5.971 c -0.473,0 -0.856,0.383 -0.856,0.856 v 0.941 C 4.41,-1.859 3.593,-2.42 2.663,-2.821 c -0.93,-0.402 -1.986,-0.603 -3.17,-0.603 -1.479,0 -2.856,0.258 -4.132,0.772 -1.275,0.514 -2.382,1.268 -3.318,2.261 -0.938,0.994 -1.67,2.212 -2.198,3.657 -0.529,1.444 -0.792,3.096 -0.792,4.956 0,1.69 0.254,3.23 0.76,4.618 0.507,1.388 1.226,2.571 2.156,3.551 0.93,0.978 2.051,1.739 3.36,2.282 1.311,0.542 2.77,0.813 4.375,0.813 1.057,0 2.022,-0.116 2.896,-0.348 0.874,-0.233 1.712,-0.638 2.515,-1.215 v 7.106 c 0,0.709 -0.575,1.283 -1.284,1.283 H 2.99 c -0.472,0 -0.855,0.384 -0.855,0.857 v 1.923 c 0,0.472 0.383,0.856 0.855,0.856"
             style="fill:#000100;fill-opacity:1;fill-rule:nonzero;stroke:none"
             id="path234" />
        </g>
        <g
           id="g236"
           transform="translate(782.8447,391.5309)">
          <path
             d="M 0,0 C 0,0.366 0.073,0.715 0.222,1.046 0.369,1.377 0.566,1.666 0.813,1.912 1.06,2.158 1.353,2.356 1.69,2.504 2.028,2.652 2.388,2.727 2.769,2.727 3.135,2.727 3.483,2.652 3.814,2.504 4.146,2.356 4.435,2.158 4.681,1.912 4.928,1.666 5.125,1.377 5.272,1.046 5.421,0.715 5.495,0.366 5.495,0 5.495,-0.381 5.421,-0.74 5.272,-1.078 5.125,-1.416 4.928,-1.716 4.681,-1.977 4.435,-2.237 4.146,-2.441 3.814,-2.589 3.483,-2.737 3.135,-2.812 2.769,-2.812 2.388,-2.812 2.028,-2.737 1.69,-2.589 1.353,-2.441 1.06,-2.237 0.813,-1.977 0.566,-1.716 0.369,-1.416 0.222,-1.078 0.073,-0.74 0,-0.381 0,0 m -1.575,-7.757 h 5.432 c 0.473,0 0.856,-0.383 0.856,-0.855 v -16.121 c 0,-0.709 0.574,-1.285 1.283,-1.285 h 1.158 c 0.473,0 0.856,-0.382 0.856,-0.855 v -1.924 c 0,-0.473 -0.383,-0.855 -0.856,-0.855 h -8.686 c -0.473,0 -0.857,0.382 -0.857,0.855 v 1.924 c 0,0.473 0.384,0.855 0.857,0.855 h 0.988 c 0.709,0 1.283,0.576 1.283,1.285 v 12.057 c 0,0.709 -0.574,1.284 -1.283,1.284 h -1.031 c -0.473,0 -0.856,0.383 -0.856,0.856 v 1.924 c 0,0.472 0.383,0.855 0.856,0.855"
             style="fill:#000100;fill-opacity:1;fill-rule:nonzero;stroke:none"
             id="path238" />
        </g>
        <g
           id="g240"
           transform="translate(804.7715,381.0475)">
          <path
             d="m 0,0 c -0.916,0 -1.716,-0.13 -2.399,-0.391 -0.684,-0.26 -1.265,-0.633 -1.744,-1.12 -0.479,-0.486 -0.863,-1.082 -1.152,-1.786 -0.092,-0.225 -0.177,-0.461 -0.255,-0.704 -0.262,-0.823 0.363,-1.663 1.228,-1.663 h 8.263 c 0.814,0 1.427,0.748 1.259,1.543 -0.052,0.247 -0.112,0.486 -0.18,0.719 -0.206,0.69 -0.518,1.289 -0.941,1.796 C 3.656,-1.099 3.113,-0.704 2.451,-0.423 1.789,-0.141 0.972,0 0,0 m -4.78,-8.729 c -0.79,0 -1.385,-0.706 -1.268,-1.488 0.011,-0.071 0.023,-0.142 0.035,-0.213 0.091,-0.514 0.222,-1.004 0.391,-1.468 0.521,-1.41 1.355,-2.47 2.505,-3.181 1.147,-0.712 2.447,-1.067 3.899,-1.067 1.141,0 2.25,0.158 3.328,0.475 0.859,0.252 1.75,0.618 2.676,1.099 0.405,0.211 0.904,0.073 1.137,-0.321 l 0.75,-1.27 c 0.234,-0.397 0.115,-0.91 -0.275,-1.155 -1.21,-0.761 -2.423,-1.343 -3.643,-1.745 -1.451,-0.479 -2.959,-0.718 -4.523,-0.718 -1.479,0 -2.849,0.246 -4.111,0.739 -1.261,0.493 -2.346,1.226 -3.254,2.198 -0.909,0.972 -1.621,2.184 -2.135,3.635 -0.514,1.451 -0.771,3.142 -0.771,5.072 0,1.565 0.218,3.04 0.655,4.428 0.437,1.388 1.088,2.6 1.955,3.635 0.867,1.036 1.941,1.856 3.223,2.463 1.282,0.605 2.775,0.908 4.48,0.908 1.649,0 3.026,-0.25 4.132,-0.75 1.107,-0.5 2.008,-1.162 2.705,-1.986 0.698,-0.825 1.227,-1.765 1.585,-2.823 0.36,-1.056 0.61,-2.134 0.751,-3.233 0.071,-0.535 0.116,-1.077 0.137,-1.627 0.021,-0.55 0.032,-1.085 0.032,-1.607 z"
             style="fill:#000100;fill-opacity:1;fill-rule:nonzero;stroke:none"
             id="path242" />
        </g>
        <g
           id="g244"
           transform="translate(835.4375,365.5133)">
          <path
             d="m 0,0 h 0.946 c 0.708,0 1.283,0.575 1.283,1.284 v 8.713 c 0,1.677 -0.426,2.948 -1.278,3.815 -0.852,0.867 -2.075,1.299 -3.667,1.299 -0.916,0 -1.839,-0.217 -2.768,-0.654 -0.733,-0.345 -1.435,-0.755 -2.107,-1.229 -0.338,-0.24 -0.536,-0.631 -0.536,-1.045 V 1.284 C -8.127,0.575 -7.552,0 -6.843,0 h 0.947 c 0.472,0 0.855,-0.383 0.855,-0.855 v -1.924 c 0,-0.473 -0.383,-0.856 -0.855,-0.856 h -8.518 c -0.473,0 -0.857,0.383 -0.857,0.856 v 1.924 c 0,0.472 0.384,0.855 0.857,0.855 h 0.903 c 0.709,0 1.284,0.575 1.284,1.284 v 12.058 c 0,0.709 -0.575,1.284 -1.284,1.284 h -0.903 c -0.473,0 -0.857,0.383 -0.857,0.855 v 1.924 c 0,0.473 0.384,0.856 0.857,0.856 h 4.835 c 0.709,0 1.283,-0.574 1.283,-1.283 v -1.295 h 0.043 c 0.465,0.408 0.961,0.796 1.489,1.162 0.529,0.366 1.081,0.683 1.66,0.951 0.578,0.267 1.179,0.478 1.807,0.634 0.626,0.155 1.285,0.232 1.976,0.232 1.17,0 2.226,-0.162 3.17,-0.485 0.944,-0.325 1.747,-0.818 2.41,-1.48 C 4.921,16.034 5.432,15.186 5.791,14.15 6.15,13.114 6.33,11.892 6.33,10.483 V 1.284 C 6.33,0.575 6.904,0 7.613,0 H 8.518 C 8.99,0 9.373,-0.383 9.373,-0.855 v -1.924 c 0,-0.473 -0.383,-0.856 -0.855,-0.856 H 0 c -0.473,0 -0.856,0.383 -0.856,0.856 v 1.924 C -0.856,-0.383 -0.473,0 0,0"
             style="fill:#000100;fill-opacity:1;fill-rule:nonzero;stroke:none"
             id="path246" />
        </g>
        <g
           id="g248"
           transform="translate(857.0947,383.774)">
          <path
             d="m 0,0 h 2.996 c 0.473,0 0.856,-0.383 0.856,-0.855 v -1.481 c 0,-0.473 -0.383,-0.855 -0.856,-0.855 h -3.045 c -0.707,0 -1.28,-0.571 -1.284,-1.278 L -1.39,-15.83 c 0,-0.859 0.099,-1.557 0.296,-2.092 0.198,-0.536 0.514,-0.906 0.951,-1.109 0.437,-0.205 0.93,-0.307 1.48,-0.307 0.592,0 1.112,0.053 1.563,0.158 0.215,0.051 0.44,0.118 0.674,0.201 0.45,0.163 0.947,-0.071 1.103,-0.524 l 0.363,-1.056 c 0.147,-0.428 -0.066,-0.892 -0.483,-1.07 -0.453,-0.193 -0.92,-0.356 -1.403,-0.488 -0.747,-0.204 -1.627,-0.307 -2.641,-0.307 -0.959,0 -1.793,0.116 -2.505,0.349 -0.712,0.232 -1.311,0.623 -1.796,1.173 -0.486,0.549 -0.85,1.286 -1.089,2.209 -0.239,0.922 -0.359,2.074 -0.359,3.455 l 0.056,10.757 c 0.004,0.71 -0.572,1.29 -1.283,1.29 h -1.342 c -0.472,0 -0.855,0.382 -0.855,0.855 v 1.481 C -8.66,-0.383 -8.277,0 -7.805,0 h 1.391 c 0.709,0 1.283,0.574 1.283,1.283 v 3.416 c 0,0.331 0.192,0.633 0.49,0.774 l 2.135,1.008 C -1.937,6.75 -1.284,6.336 -1.284,5.708 V 1.283 C -1.284,0.574 -0.709,0 0,0"
             style="fill:#000100;fill-opacity:1;fill-rule:nonzero;stroke:none"
             id="path250" />
        </g>
        <g
           id="g252"
           transform="translate(878.2344,379.4098)">
          <path
             d="m 0,0 c -0.275,0.415 -0.631,0.754 -1.067,1.015 -0.438,0.26 -0.923,0.45 -1.458,0.57 -0.537,0.119 -1.058,0.18 -1.565,0.18 -0.563,0 -1.081,-0.064 -1.554,-0.191 C -6.115,1.447 -6.521,1.265 -6.858,1.025 -7.196,0.785 -7.461,0.493 -7.651,0.148 c -0.19,-0.345 -0.286,-0.729 -0.286,-1.152 0,-0.732 0.222,-1.314 0.666,-1.743 0.444,-0.431 1.187,-0.828 2.23,-1.194 l 4.206,-1.48 c 1.804,-0.606 3.12,-1.431 3.952,-2.473 0.831,-1.043 1.247,-2.29 1.247,-3.741 0,-0.971 -0.194,-1.863 -0.581,-2.674 -0.387,-0.81 -0.937,-1.5 -1.648,-2.07 -0.712,-0.571 -1.569,-1.015 -2.569,-1.332 -1.001,-0.317 -2.113,-0.476 -3.338,-0.476 -1.706,0 -3.094,0.275 -4.165,0.825 -1.07,0.55 -1.894,1.275 -2.472,2.176 h -1.342 c -0.473,0 -0.856,0.384 -0.856,0.857 v 1.923 c 0,0.472 0.383,0.856 0.856,0.856 h 2.744 c 0.411,0 0.76,-0.295 0.84,-0.698 0.063,-0.316 0.171,-0.602 0.326,-0.856 0.26,-0.429 0.606,-0.778 1.035,-1.045 0.43,-0.269 0.916,-0.465 1.458,-0.592 0.543,-0.127 1.096,-0.191 1.66,-0.191 0.549,0 1.078,0.067 1.584,0.202 0.508,0.132 0.956,0.33 1.343,0.59 0.387,0.261 0.694,0.575 0.919,0.942 0.226,0.366 0.338,0.781 0.338,1.246 0,0.705 -0.228,1.304 -0.686,1.797 -0.458,0.493 -1.237,0.936 -2.335,1.331 l -4.186,1.564 c -1.705,0.606 -2.969,1.377 -3.793,2.315 -0.824,0.936 -1.236,2.109 -1.236,3.518 0,0.93 0.172,1.789 0.517,2.579 0.345,0.788 0.846,1.469 1.5,2.039 0.656,0.571 1.455,1.018 2.4,1.342 0.943,0.324 2.021,0.487 3.233,0.487 1.565,0 2.874,-0.219 3.931,-0.656 1.057,-0.436 2.008,-1.183 2.853,-2.24 h 1.195 c 0.472,0 0.855,-0.383 0.855,-0.855 v -1.924 c 0,-0.473 -0.383,-0.856 -0.855,-0.856 H 1.18 c -0.407,0 -0.751,0.287 -0.838,0.685 C 0.275,-0.521 0.161,-0.245 0,0"
             style="fill:#000100;fill-opacity:1;fill-rule:nonzero;stroke:none"
             id="path254" />
        </g>
        <g
           id="g256"
           transform="translate(908.001,376.2926)">
          <path
             d="M 0,0 H 6.289 C 7.172,0 7.792,0.871 7.501,1.705 L 4.33,10.816 C 3.929,11.969 2.298,11.965 1.903,10.811 L -1.215,1.699 C -1.5,0.866 -0.881,0 0,0 m 10.05,-10.779 v 0 c 0.884,0 1.503,0.872 1.212,1.707 l -1.641,4.703 c -0.18,0.515 -0.666,0.86 -1.212,0.86 h -10.49 c -0.55,0 -1.039,-0.349 -1.216,-0.87 l -1.599,-4.703 c -0.284,-0.832 0.335,-1.697 1.215,-1.697 h 0.221 c 0.709,0 1.283,-0.575 1.283,-1.284 v -1.496 c 0,-0.472 -0.383,-0.855 -0.855,-0.855 h -8.687 c -0.472,0 -0.855,0.383 -0.855,0.855 v 1.924 c 0,0.473 0.383,0.856 0.855,0.856 h 1.025 c 0.545,0 1.03,0.344 1.211,0.858 l 9.473,26.975 c 0.12,0.342 0.444,0.572 0.807,0.572 h 5.021 c 0.364,0 0.688,-0.23 0.808,-0.572 L 16.079,-9.92 c 0.18,-0.515 0.666,-0.859 1.211,-0.859 h 1.446 c 0.473,0 0.857,-0.383 0.857,-0.856 v -1.924 c 0,-0.472 -0.384,-0.855 -0.857,-0.855 H 10.05 c -0.473,0 -0.856,0.383 -0.856,0.855 v 1.924 c 0,0.473 0.383,0.856 0.856,0.856"
             style="fill:#e7311b;fill-opacity:1;fill-rule:nonzero;stroke:none"
             id="path258" />
        </g>
        <g
           id="g260"
           transform="translate(953.4297,362.859)">
          <path
             d="M 0,0 V 5.474 C -0.527,4.377 -1.187,3.423 -1.978,2.61 -2.769,1.799 -3.65,1.129 -4.622,0.602 -5.594,0.074 -6.631,-0.321 -7.734,-0.585 -8.838,-0.849 -9.959,-0.98 -11.097,-0.98 c -2.053,0 -3.948,0.343 -5.683,1.03 -1.736,0.687 -3.307,1.78 -4.716,3.279 -1.408,1.499 -2.484,3.275 -3.227,5.329 -0.742,2.055 -1.113,4.199 -1.113,6.434 0,2.248 0.371,4.372 1.113,6.37 0.743,1.999 1.784,3.741 3.123,5.225 1.339,1.486 2.936,2.652 4.788,3.499 1.853,0.846 3.863,1.269 6.028,1.269 1.998,0 3.716,-0.284 5.152,-0.853 1.437,-0.57 2.665,-1.259 3.686,-2.072 1.019,-0.811 1.835,-1.586 2.446,-2.321 h 1.163 c 0.473,0 0.857,-0.383 0.857,-0.855 v -1.995 c 0,-0.472 -0.384,-0.856 -0.857,-0.856 h -2.224 c -0.815,0 -1.591,0.376 -2.079,1.03 -0.824,1.105 -1.829,2.01 -3.012,2.718 -1.535,0.916 -3.251,1.359 -5.154,1.332 -1.595,0 -3.059,-0.34 -4.392,-1.021 -1.332,-0.679 -2.474,-1.595 -3.425,-2.747 -0.95,-1.152 -1.689,-2.477 -2.217,-3.976 -0.527,-1.499 -0.791,-3.082 -0.791,-4.747 0,-1.846 0.291,-3.561 0.874,-5.143 0.583,-1.582 1.325,-2.866 2.228,-3.851 0.902,-0.986 2.016,-1.801 3.341,-2.447 1.326,-0.645 2.793,-0.967 4.404,-0.967 2.665,0 4.85,0.648 6.557,1.946 1.528,1.161 2.644,2.902 3.349,5.224 0.128,0.419 -0.182,0.845 -0.62,0.845 h -7.119 c -0.473,0 -0.856,0.383 -0.856,0.856 v 1.869 c 0,0.472 0.383,0.856 0.856,0.856 H 3.017 c 0.472,0 0.855,-0.384 0.855,-0.856 V 0 c 0,-0.473 -0.383,-0.855 -0.855,-0.855 H 0.855 C 0.383,-0.855 0,-0.473 0,0"
             style="fill:#e7311b;fill-opacity:1;fill-rule:nonzero;stroke:none"
             id="path262" />
        </g>
      </g>
    </g>
  </g>
</svg>
